<svg width="580" height="384" viewBox="0 0 580 384" fill="none" xmlns="http://www.w3.org/2000/svg">
<path d="M457.138 310.355L340.096 310.154" stroke="#5E009B" stroke-width="13.3333" stroke-miterlimit="10"/>
<path d="M340.717 310.136L110.087 310.423" stroke="#5E009B" stroke-width="13.3333" stroke-miterlimit="10"/>
<path d="M267.869 120.09L122 304.075" stroke="#5E009B" stroke-width="13.3333" stroke-miterlimit="10"/>
<path d="M305 119.788L469.073 317.534" stroke="#5E009B" stroke-width="13.3333" stroke-miterlimit="10"/>
<path d="M457.339 258.965C457.351 253.074 462.135 248.307 468.026 248.319L550.117 248.474C556.009 248.485 560.775 253.269 560.764 259.16L560.571 361.562C560.56 367.453 555.775 372.22 549.884 372.208L467.793 372.053C461.902 372.042 457.135 367.258 457.146 361.367L457.339 258.965Z" fill="#05BEDA"/>
<path d="M27.924 259.22C27.9231 253.329 32.6984 248.552 38.589 248.551L111.388 248.54C117.278 248.539 122.055 253.315 122.056 259.206L122.072 361.608C122.073 367.499 117.297 372.275 111.407 372.276L38.6082 372.287C32.7175 372.288 27.9407 367.513 27.9398 361.622L27.924 259.22Z" fill="#05BEDA"/>
<path d="M214.526 30.9243C214.525 25.0336 219.3 20.2568 225.191 20.2559L353.94 20.2361C359.831 20.2352 364.608 25.0104 364.609 30.9011L364.622 116.294C364.623 122.185 359.848 126.962 353.957 126.963L225.208 126.983C219.317 126.984 214.54 122.208 214.539 116.318L214.526 30.9243Z" fill="#BEDA1A"/>
<path fill-rule="evenodd" clip-rule="evenodd" d="M402.404 176.759C425.538 177.178 443.951 196.27 443.532 219.403C443.113 242.536 424.02 260.949 400.886 260.53C377.753 260.11 359.34 241.018 359.759 217.885C360.178 194.753 379.27 176.34 402.404 176.759Z" fill="#280A53"/>
<path fill-rule="evenodd" clip-rule="evenodd" d="M414.882 216.024C414.242 216.013 413.602 216.001 412.962 215.989L413.056 210.779C413.186 203.636 408.542 198.366 402.015 198.248C395.488 198.129 390.656 203.228 390.527 210.371L390.432 215.581C389.792 215.57 389.152 215.558 388.512 215.546C388.063 215.538 387.629 215.709 387.306 216.021C386.983 216.332 386.797 216.76 386.789 217.209C386.674 223.551 386.559 229.892 386.444 236.234C386.383 239.617 416.138 240.156 416.199 236.773L416.544 217.748C416.552 217.299 416.381 216.865 416.07 216.542C415.758 216.218 415.331 216.032 414.882 216.024ZM393.927 210.432C394.021 205.26 397.397 201.566 401.953 201.648C406.51 201.731 409.749 205.545 409.655 210.717L409.561 215.928C404.318 215.833 399.076 215.738 393.833 215.643L393.927 210.432ZM403.187 228.008C403.052 228.077 402.964 228.213 402.96 228.364L402.896 231.88C402.898 232.694 402.269 233.37 401.457 233.427C401.049 233.442 400.652 233.287 400.36 233.001C400.067 232.714 399.907 232.32 399.914 231.91C399.936 230.71 399.957 229.51 399.979 228.309C399.981 228.159 399.899 228.02 399.767 227.947C398.383 227.143 397.716 225.505 398.147 223.964C398.578 222.422 399.994 221.366 401.595 221.395C403.195 221.423 404.574 222.53 404.949 224.086C405.323 225.642 404.598 227.254 403.187 228.008Z" fill="black"/>
<path d="M414.882 216.024C414.242 216.013 413.602 216.001 412.962 215.989L413.056 210.779C413.186 203.636 408.542 198.366 402.015 198.248C395.488 198.129 390.656 203.228 390.527 210.371L390.432 215.581C389.792 215.57 389.152 215.558 388.512 215.546C388.063 215.538 387.629 215.709 387.306 216.021C386.983 216.332 386.797 216.76 386.789 217.209C386.674 223.551 386.559 229.892 386.444 236.234C386.383 239.617 416.138 240.156 416.199 236.773L416.544 217.748C416.552 217.299 416.381 216.865 416.07 216.542C415.758 216.218 415.331 216.032 414.882 216.024ZM393.927 210.432C394.021 205.26 397.397 201.566 401.953 201.648C406.51 201.731 409.749 205.545 409.655 210.717L409.561 215.928C404.318 215.833 399.076 215.738 393.833 215.643L393.927 210.432ZM403.187 228.008C403.052 228.077 402.964 228.213 402.96 228.364L402.896 231.88C402.898 232.694 402.269 233.37 401.457 233.427C401.049 233.442 400.652 233.287 400.36 233.001C400.067 232.714 399.907 232.32 399.914 231.91C399.936 230.71 399.957 229.51 399.979 228.309C399.981 228.159 399.899 228.02 399.767 227.947C398.383 227.143 397.716 225.505 398.147 223.964C398.578 222.422 399.994 221.366 401.595 221.395C403.195 221.423 404.574 222.53 404.949 224.086C405.323 225.642 404.598 227.254 403.187 228.008Z" fill="white"/>
<path fill-rule="evenodd" clip-rule="evenodd" d="M290.404 271.759C313.538 272.178 331.951 291.27 331.532 314.403C331.113 337.536 312.02 355.949 288.886 355.53C265.753 355.111 247.34 336.018 247.759 312.885C248.178 289.753 267.27 271.34 290.404 271.759Z" fill="#280A53"/>
<path fill-rule="evenodd" clip-rule="evenodd" d="M302.882 311.024C302.242 311.013 301.602 311.001 300.962 310.989L301.056 305.779C301.186 298.636 296.542 293.366 290.015 293.248C283.488 293.129 278.656 298.228 278.527 305.371L278.432 310.581C277.792 310.57 277.152 310.558 276.512 310.546C276.063 310.538 275.629 310.709 275.306 311.021C274.983 311.333 274.797 311.76 274.789 312.209C274.674 318.551 274.559 324.893 274.444 331.234C274.383 334.617 304.138 335.156 304.199 331.773L304.544 312.748C304.552 312.299 304.381 311.865 304.07 311.542C303.758 311.218 303.331 311.032 302.882 311.024ZM281.927 305.432C282.021 300.26 285.397 296.566 289.953 296.648C294.51 296.731 297.749 300.545 297.655 305.717L297.561 310.928C292.318 310.833 287.076 310.738 281.833 310.643L281.927 305.432ZM291.187 323.008C291.052 323.077 290.964 323.213 290.96 323.365L290.896 326.88C290.898 327.694 290.269 328.37 289.457 328.427C289.049 328.442 288.652 328.287 288.36 328.001C288.067 327.714 287.907 327.32 287.914 326.91C287.936 325.71 287.957 324.51 287.979 323.309C287.981 323.159 287.899 323.02 287.767 322.947C286.383 322.143 285.716 320.505 286.147 318.964C286.578 317.422 287.994 316.366 289.595 316.395C291.195 316.424 292.574 317.53 292.949 319.086C293.323 320.642 292.598 322.254 291.187 323.008Z" fill="black"/>
<path d="M302.882 311.024C302.242 311.013 301.602 311.001 300.962 310.989L301.056 305.779C301.186 298.636 296.542 293.366 290.015 293.248C283.488 293.129 278.656 298.228 278.527 305.371L278.432 310.581C277.792 310.57 277.152 310.558 276.512 310.546C276.063 310.538 275.629 310.709 275.306 311.021C274.983 311.333 274.797 311.76 274.789 312.209C274.674 318.551 274.559 324.893 274.444 331.234C274.383 334.617 304.138 335.156 304.199 331.773L304.544 312.748C304.552 312.299 304.381 311.865 304.07 311.542C303.758 311.218 303.331 311.032 302.882 311.024ZM281.927 305.432C282.021 300.26 285.397 296.566 289.953 296.648C294.51 296.731 297.749 300.545 297.655 305.717L297.561 310.928C292.318 310.833 287.076 310.738 281.833 310.643L281.927 305.432ZM291.187 323.008C291.052 323.077 290.964 323.213 290.96 323.365L290.896 326.88C290.898 327.694 290.269 328.37 289.457 328.427C289.049 328.442 288.652 328.287 288.36 328.001C288.067 327.714 287.907 327.32 287.914 326.91C287.936 325.71 287.957 324.51 287.979 323.309C287.981 323.159 287.899 323.02 287.767 322.947C286.383 322.143 285.716 320.505 286.147 318.964C286.578 317.422 287.994 316.366 289.595 316.395C291.195 316.424 292.574 317.53 292.949 319.086C293.323 320.642 292.598 322.254 291.187 323.008Z" fill="white"/>
<path fill-rule="evenodd" clip-rule="evenodd" d="M187.404 175.759C210.538 176.178 228.951 195.27 228.532 218.403C228.113 241.536 209.02 259.949 185.887 259.53C162.753 259.11 144.34 240.018 144.759 216.885C145.178 193.753 164.271 175.34 187.404 175.759Z" fill="#280A53"/>
<path fill-rule="evenodd" clip-rule="evenodd" d="M199.882 215.024C199.242 215.013 198.602 215.001 197.962 214.989L198.056 209.779C198.186 202.636 193.542 197.366 187.015 197.248C180.488 197.129 175.656 202.228 175.527 209.371L175.432 214.581C174.792 214.57 174.152 214.558 173.513 214.546C173.063 214.538 172.63 214.709 172.306 215.021C171.983 215.332 171.797 215.76 171.789 216.209C171.674 222.551 171.559 228.892 171.444 235.234C171.383 238.617 201.138 239.156 201.199 235.773L201.544 216.748C201.552 216.299 201.381 215.865 201.07 215.542C200.758 215.218 200.331 215.032 199.882 215.024ZM178.927 209.432C179.021 204.26 182.397 200.566 186.953 200.648C191.51 200.731 194.749 204.545 194.656 209.717L194.561 214.928C189.318 214.833 184.076 214.738 178.833 214.643L178.927 209.432ZM188.187 227.008C188.052 227.077 187.964 227.213 187.96 227.364L187.896 230.88C187.898 231.694 187.269 232.37 186.458 232.427C186.049 232.442 185.652 232.287 185.36 232.001C185.068 231.714 184.907 231.32 184.914 230.91C184.936 229.71 184.958 228.51 184.979 227.309C184.981 227.159 184.899 227.02 184.767 226.947C183.383 226.143 182.716 224.505 183.147 222.964C183.578 221.422 184.994 220.366 186.595 220.395C188.195 220.423 189.574 221.53 189.949 223.086C190.323 224.642 189.598 226.254 188.187 227.008Z" fill="black"/>
<path d="M199.882 215.024C199.242 215.013 198.602 215.001 197.962 214.989L198.056 209.779C198.186 202.636 193.542 197.366 187.015 197.248C180.488 197.129 175.656 202.228 175.527 209.371L175.432 214.581C174.792 214.57 174.152 214.558 173.513 214.546C173.063 214.538 172.63 214.709 172.306 215.021C171.983 215.332 171.797 215.76 171.789 216.209C171.674 222.551 171.559 228.892 171.444 235.234C171.383 238.617 201.138 239.156 201.199 235.773L201.544 216.748C201.552 216.299 201.381 215.865 201.07 215.542C200.758 215.218 200.331 215.032 199.882 215.024ZM178.927 209.432C179.021 204.26 182.397 200.566 186.953 200.648C191.51 200.731 194.749 204.545 194.656 209.717L194.561 214.928C189.318 214.833 184.076 214.738 178.833 214.643L178.927 209.432ZM188.187 227.008C188.052 227.077 187.964 227.213 187.96 227.364L187.896 230.88C187.898 231.694 187.269 232.37 186.458 232.427C186.049 232.442 185.652 232.287 185.36 232.001C185.068 231.714 184.907 231.32 184.914 230.91C184.936 229.71 184.958 228.51 184.979 227.309C184.981 227.159 184.899 227.02 184.767 226.947C183.383 226.143 182.716 224.505 183.147 222.964C183.578 221.422 184.994 220.366 186.595 220.395C188.195 220.423 189.574 221.53 189.949 223.086C190.323 224.642 189.598 226.254 188.187 227.008Z" fill="white"/>
</svg>
