<?xml version="1.0" encoding="utf-8"?>
<svg x="0pt" y="0pt" width="434.711pt" height="287.906pt" viewBox="0 0 434.711 287.906" xmlns="http://www.w3.org/2000/svg" xmlns:xlink="http://www.w3.org/1999/xlink">
  <g id="1">
    <title>1</title>
    <defs>
      <title>Path</title>
      <g id="2">
        <defs>
          <path id="3" d="M91.8933,55.1538 C91.8933,55.1538,179.675,55.3186,179.675,55.3186"/>
        </defs>
        <use xlink:href="#3" style="fill:none;opacity:1;stroke:#5e009b;stroke-linecap:butt;stroke-linejoin:miter;stroke-miterlimit:10;stroke-opacity:1;stroke-width:10;"/>
      </g>
    </defs>
    <use xlink:href="#2"/>
    <defs>
      <title>Path</title>
      <g id="4">
        <defs>
          <path id="5" d="M248.959,55.3422 C248.959,55.3422,358.93,55.1538,358.93,55.1538"/>
        </defs>
        <use xlink:href="#5" style="fill:none;opacity:1;stroke:#5e009b;stroke-linecap:butt;stroke-linejoin:miter;stroke-miterlimit:10;stroke-opacity:1;stroke-width:10;"/>
      </g>
    </defs>
    <use xlink:href="#4"/>
    <defs>
      <title>Path</title>
      <g id="6">
        <defs>
          <path id="7" d="M218.539,161.145 C218.539,161.145,218.539,131.974,218.539,131.974"/>
        </defs>
        <use xlink:href="#7" style="fill:none;opacity:1;stroke:#5e009b;stroke-linecap:butt;stroke-linejoin:miter;stroke-miterlimit:10;stroke-opacity:1;stroke-width:10;"/>
      </g>
    </defs>
    <use xlink:href="#6"/>
    <defs>
      <title>Smart Rectangle</title>
      <g id="8">
        <defs>
          <path id="9" d="M91.7364,93.6965 C91.7274,98.1148,88.1383,101.689,83.7201,101.68 C83.7201,101.68,22.1517,101.554,22.1517,101.554 C17.7334,101.545,14.159,97.9563,14.168,93.538 C14.168,93.538,14.3249,16.7367,14.3249,16.7367 C14.3339,12.3185,17.9229,8.74408,22.3412,8.75311 C22.3412,8.75311,83.9096,8.87887,83.9096,8.87887 C88.3279,8.88789,91.9023,12.4769,91.8933,16.8952 C91.8933,16.8952,91.7364,93.6965,91.7364,93.6965 z"/>
        </defs>
        <use xlink:href="#9" style="fill:#05beda;fill-opacity:1;fill-rule:nonzero;opacity:1;stroke:none;"/>
      </g>
    </defs>
    <use xlink:href="#8"/>
    <defs>
      <title>Smart Rectangle</title>
      <g id="10">
        <defs>
          <path id="11" d="M261.346,93.5546 C261.346,97.9728,257.765,101.555,253.346,101.555 C253.346,101.555,181.731,101.555,181.731,101.555 C177.313,101.555,173.731,97.9728,173.731,93.5546 C173.731,93.5546,173.731,16.7531,173.731,16.7531 C173.731,12.3348,177.313,8.75309,181.731,8.75309 C181.731,8.75309,253.346,8.75309,253.346,8.75309 C257.765,8.75309,261.346,12.3348,261.346,16.7531 C261.346,16.7531,261.346,93.5546,261.346,93.5546 z"/>
        </defs>
        <use xlink:href="#11" style="fill:#beda1a;fill-opacity:1;fill-rule:nonzero;opacity:1;stroke:none;"/>
      </g>
    </defs>
    <use xlink:href="#10"/>
    <defs>
      <title>Smart Rectangle</title>
      <g id="12">
        <defs>
          <path id="13" d="M413.798,93.5546 C413.798,97.9728,410.216,101.555,405.798,101.555 C405.798,101.555,351.199,101.555,351.199,101.555 C346.781,101.555,343.199,97.9728,343.199,93.5546 C343.199,93.5546,343.199,16.7531,343.199,16.7531 C343.199,12.3348,346.781,8.7531,351.199,8.7531 C351.199,8.7531,405.798,8.7531,405.798,8.7531 C410.216,8.7531,413.798,12.3348,413.798,16.7531 C413.798,16.7531,413.798,93.5546,413.798,93.5546 z"/>
        </defs>
        <use xlink:href="#13" style="fill:#05beda;fill-opacity:1;fill-rule:nonzero;opacity:1;stroke:none;"/>
      </g>
    </defs>
    <use xlink:href="#12"/>
    <defs>
      <title>Smart Rectangle</title>
      <g id="14">
        <defs>
          <path id="15" d="M273.82,264.755 C273.82,269.173,270.238,272.755,265.82,272.755 C265.82,272.755,169.258,272.755,169.258,272.755 C164.84,272.755,161.258,269.173,161.258,264.755 C161.258,264.755,161.258,200.71,161.258,200.71 C161.258,196.292,164.84,192.71,169.258,192.71 C169.258,192.71,265.82,192.71,265.82,192.71 C270.238,192.71,273.82,196.292,273.82,200.71 C273.82,200.71,273.82,264.755,273.82,264.755 z"/>
        </defs>
        <use xlink:href="#15" style="fill:#05beda;fill-opacity:1;fill-rule:nonzero;opacity:1;stroke:none;"/>
      </g>
    </defs>
    <use xlink:href="#14"/>
    <g id="16">
      <title>Group</title>
      <defs>
        <title>Path</title>
        <g id="17">
          <defs>
            <path id="18" d="M218.539,71.1346 C235.339,71.1346,248.959,84.7541,248.959,101.555 C248.959,118.355,235.339,131.974,218.539,131.974 C201.738,131.974,188.119,118.355,188.119,101.555 C188.119,84.7541,201.738,71.1346,218.539,71.1346 z"/>
          </defs>
          <use xlink:href="#18" style="fill:#280a53;fill-opacity:1;fill-rule:evenodd;opacity:1;stroke:none;"/>
        </g>
      </defs>
      <use xlink:href="#17"/>
      <clipPath id="20">
        <use xlink:href="#19"/>
        <path id="19" d="M248.959,119.619 C248.959,119.619,195.596,119.619,195.596,119.619 C195.596,119.619,195.596,83.4897,195.596,83.4897 C195.596,83.4897,248.959,83.4897,248.959,83.4897"/>
      </clipPath>
      <g id="21" style="clip-path:url(#20);">
        <title>ClipGroup</title>
        <defs>
          <title>Shape 17</title>
          <g id="22">
            <defs>
              <path id="23" d="M208.997,100.981 C208.997,100.981,209.061,103.68,209.061,103.68 C209.061,103.68,211.903,105.442,211.903,105.442 C211.903,105.442,211.839,102.742,211.839,102.742 C211.839,102.742,208.997,100.981,208.997,100.981"/>
            </defs>
            <use xlink:href="#23" style="fill:#ffffff;fill-opacity:1;fill-rule:nonzero;opacity:1;stroke:none;"/>
          </g>
        </defs>
        <use xlink:href="#22"/>
        <defs>
          <title>Shape 18</title>
          <g id="24">
            <defs>
              <path id="25" d="M215.933,112.198 C215.933,112.198,215.871,109.555,215.871,109.555 C215.871,109.555,213.381,108.012,213.381,108.012 C213.344,107.989,213.311,107.962,213.275,107.937 C213.275,107.937,213.338,110.59,213.338,110.59 C213.338,110.59,215.933,112.198,215.933,112.198"/>
            </defs>
            <use xlink:href="#25" style="fill:#ffffff;fill-opacity:1;fill-rule:nonzero;opacity:1;stroke:none;"/>
          </g>
        </defs>
        <use xlink:href="#24"/>
        <defs>
          <title>Shape 19</title>
          <g id="26">
            <defs>
              <path id="27" d="M207.06,115.757 C207.06,115.757,200.562,111.731,200.562,111.731 C200.562,111.731,200.404,104.974,200.404,104.974 C200.404,104.974,203.589,103.6,203.589,103.6 C203.589,103.6,203.526,100.901,203.526,100.901 C203.526,100.901,198.441,103.093,198.441,103.093 C198.051,103.263,197.816,103.622,197.825,104.04 C197.825,104.04,198.016,112.146,198.016,112.146 C198.025,112.565,198.279,112.974,198.681,113.225 C198.681,113.225,206.474,118.054,206.474,118.054 C206.837,118.279,207.274,118.34,207.644,118.223 C207.683,118.211,207.718,118.197,207.754,118.183 C207.754,118.183,212.536,116.122,212.536,116.122 C212.536,116.122,209.942,114.514,209.942,114.514 C209.942,114.514,207.06,115.757,207.06,115.757"/>
            </defs>
            <use xlink:href="#27" style="fill:#ffffff;fill-opacity:1;fill-rule:nonzero;opacity:1;stroke:none;"/>
          </g>
        </defs>
        <use xlink:href="#26"/>
        <defs>
          <title>Shape 20</title>
          <g id="28">
            <defs>
              <path id="29" d="M228.055,100.827 C228.043,100.341,227.748,99.8596,227.279,99.57 C227.279,99.57,217.818,93.7067,217.818,93.7067 C217.818,93.7067,217.526,93.8325,217.526,93.8325 C217.526,93.8325,217.593,96.6699,217.593,96.6699 C217.593,96.6699,225.085,101.311,225.085,101.311 C225.085,101.311,225.264,108.902,225.264,108.902 C225.264,108.902,228.129,110.678,228.129,110.678 C228.129,110.678,228.285,110.61,228.285,110.61 C228.285,110.61,228.055,100.827,228.055,100.827"/>
            </defs>
            <use xlink:href="#29" style="fill:#fff9f9;fill-opacity:1;fill-rule:nonzero;opacity:1;stroke:none;"/>
          </g>
        </defs>
        <use xlink:href="#28"/>
        <defs>
          <title>Shape 21</title>
          <g id="30">
            <defs>
              <path id="31" d="M216.724,114.152 C216.724,114.152,207.935,108.705,207.935,108.705 C207.935,108.705,207.719,99.5611,207.719,99.5611 C207.719,99.5611,211.723,97.8362,211.723,97.8362 C211.723,97.8362,211.649,94.6871,211.649,94.6871 C211.649,94.6871,205.432,97.3675,205.432,97.3675 C204.976,97.5662,204.701,97.9868,204.713,98.4728 C204.713,98.4728,204.966,109.191,204.966,109.191 C204.975,109.678,205.272,110.156,205.741,110.446 C205.741,110.446,216.043,116.832,216.043,116.832 C216.467,117.095,216.978,117.166,217.408,117.03 C217.452,117.016,217.495,117,217.537,116.981 C217.537,116.981,223.622,114.358,223.622,114.358 C223.622,114.358,220.596,112.483,220.596,112.483 C220.596,112.483,216.724,114.152,216.724,114.152"/>
            </defs>
            <use xlink:href="#31" style="fill:#ffffff;fill-opacity:1;fill-rule:nonzero;opacity:1;stroke:none;"/>
          </g>
        </defs>
        <use xlink:href="#30"/>
        <defs>
          <title>Shape 22</title>
          <g id="32">
            <defs>
              <path id="33" d="M228.025,112.077 C228.025,112.077,216.545,104.963,216.545,104.963 C216.545,104.963,216.263,93.0226,216.263,93.0226 C216.263,93.0226,227.461,88.1959,227.461,88.1959 C227.461,88.1959,238.94,95.3077,238.94,95.3077 C238.94,95.3077,239.222,107.248,239.222,107.248 C239.222,107.248,228.025,112.077,228.025,112.077 z M241.45,93.319 C241.45,93.319,228.241,85.1317,228.241,85.1317 C227.754,84.8297,227.173,84.7501,226.676,84.9071 C226.627,84.9224,226.579,84.9401,226.532,84.9601 C226.532,84.9601,213.648,90.5164,213.648,90.5164 C213.126,90.7415,212.812,91.2209,212.825,91.7777 C212.825,91.7777,213.149,105.519,213.149,105.519 C213.162,106.076,213.501,106.623,214.036,106.954 C214.036,106.954,227.245,115.139,227.245,115.139 C227.73,115.44,228.311,115.522,228.805,115.366 C228.854,115.35,228.904,115.332,228.953,115.311 C228.953,115.311,241.839,109.757,241.839,109.757 C242.361,109.532,242.673,109.05,242.66,108.493 C242.66,108.493,242.338,94.7541,242.338,94.7541 C242.324,94.1974,241.985,93.6507,241.45,93.319"/>
            </defs>
            <use xlink:href="#33" style="fill:#ffffff;fill-opacity:1;fill-rule:nonzero;opacity:1;stroke:none;"/>
          </g>
        </defs>
        <use xlink:href="#32"/>
      </g>
      <clipPath id="35">
        <use xlink:href="#34"/>
        <path id="34" d="M248.959,119.619 C248.959,119.619,195.596,119.619,195.596,119.619 C195.596,119.619,195.596,83.4897,195.596,83.4897 C195.596,83.4897,248.959,83.4897,248.959,83.4897"/>
      </clipPath>
      <g id="36" style="clip-path:url(#35);"/>
    </g>
    <g id="37">
      <title>Group</title>
      <defs>
        <title>Path</title>
        <g id="38">
          <defs>
            <path id="39" d="M301.944,24.8281 C319.297,24.8281,333.364,38.4476,333.364,55.248 C333.364,72.0485,319.297,85.6679,301.944,85.6679 C284.591,85.6679,270.524,72.0485,270.524,55.248 C270.524,38.4476,284.591,24.8281,301.944,24.8281 z"/>
          </defs>
          <use xlink:href="#39" style="fill:#280a53;fill-opacity:1;fill-rule:evenodd;opacity:1;stroke:none;"/>
        </g>
      </defs>
      <use xlink:href="#38"/>
      <clipPath id="41">
        <use xlink:href="#40"/>
        <path id="40" d="M283.841,37.2664 C283.841,37.2664,320.048,37.2664,320.048,37.2664 C320.048,37.2664,320.048,72.3209,320.048,72.3209 C320.048,72.3209,283.841,72.3209,283.841,72.3209 C283.841,72.3209,283.841,37.2664,283.841,37.2664 z"/>
      </clipPath>
      <g id="42" style="clip-path:url(#41);">
        <title>ClipGroup</title>
        <g id="43">
          <title>Group</title>
          <g id="44">
            <title>Group</title>
            <g id="45">
              <title>Group</title>
              <g id="46">
                <title>Group</title>
                <g id="47">
                  <title>Group</title>
                  <defs>
                    <title>Shape 1</title>
                    <g id="48">
                      <defs>
                        <path id="49" d="M304.561,46.7068 C304.561,46.7068,304.525,37.3705,304.525,37.3705 C304.525,37.3705,299.148,37.3705,299.148,37.3705 C299.148,37.3705,299.184,46.7068,299.184,46.7068 C299.184,46.7068,301.872,50.2817,301.872,50.2817 C301.872,50.2817,304.561,46.7068,304.561,46.7068 z"/>
                      </defs>
                      <use xlink:href="#49" style="fill:#ffffff;fill-opacity:1;fill-rule:evenodd;opacity:1;stroke:none;"/>
                    </g>
                  </defs>
                  <use xlink:href="#48"/>
                  <defs>
                    <title>Shape 2</title>
                    <g id="50">
                      <defs>
                        <path id="51" d="M299.184,62.707 C299.184,62.707,299.184,72.078,299.184,72.078 C299.184,72.078,304.561,72.078,304.561,72.078 C304.561,72.078,304.561,62.707,304.561,62.707 C304.561,62.707,301.872,59.1321,301.872,59.1321 C301.872,59.1321,299.184,62.707,299.184,62.707 z"/>
                      </defs>
                      <use xlink:href="#51" style="fill:#ffffff;fill-opacity:1;fill-rule:evenodd;opacity:1;stroke:none;"/>
                    </g>
                  </defs>
                  <use xlink:href="#50"/>
                  <defs>
                    <title>Shape 3</title>
                    <g id="52">
                      <defs>
                        <path id="53" d="M304.561,62.707 C304.561,62.707,310.225,70.2732,310.225,70.2732 C310.225,70.2732,314.563,67.2189,314.563,67.2189 C314.563,67.2189,308.899,59.6527,308.899,59.6527 C308.899,59.6527,304.561,58.2991,304.561,58.2991 C304.561,58.2991,304.561,62.707,304.561,62.707 z"/>
                      </defs>
                      <use xlink:href="#53" style="fill:#00f2e6;fill-opacity:1;fill-rule:evenodd;opacity:1;stroke:none;"/>
                    </g>
                  </defs>
                  <use xlink:href="#52"/>
                  <defs>
                    <title>Shape 4</title>
                    <g id="54">
                      <defs>
                        <path id="55" d="M299.184,46.7068 C299.184,46.7068,293.484,39.1406,293.484,39.1406 C293.484,39.1406,289.146,42.1948,289.146,42.1948 C289.146,42.1948,294.81,49.7611,294.81,49.7611 C294.81,49.7611,299.184,51.1147,299.184,51.1147 C299.184,51.1147,299.184,46.7068,299.184,46.7068 z"/>
                      </defs>
                      <use xlink:href="#55" style="fill:#00f2e6;fill-opacity:1;fill-rule:evenodd;opacity:1;stroke:none;"/>
                    </g>
                  </defs>
                  <use xlink:href="#54"/>
                  <defs>
                    <title>Shape 5</title>
                    <g id="56">
                      <defs>
                        <path id="57" d="M294.81,49.7611 C294.81,49.7611,285.633,46.8804,285.633,46.8804 C285.633,46.8804,283.984,51.8088,283.984,51.8088 C283.984,51.8088,293.161,54.7242,293.161,54.7242 C293.161,54.7242,297.499,53.3359,297.499,53.3359 C297.499,53.3359,294.81,49.7611,294.81,49.7611 z"/>
                      </defs>
                      <use xlink:href="#57" style="fill:#00b9f1;fill-opacity:1;fill-rule:evenodd;opacity:1;stroke:none;"/>
                    </g>
                  </defs>
                  <use xlink:href="#56"/>
                  <defs>
                    <title>Shape 6</title>
                    <g id="58">
                      <defs>
                        <path id="59" d="M306.21,56.0778 C306.21,56.0778,308.899,59.6527,308.899,59.6527 C308.899,59.6527,318.076,62.5334,318.076,62.5334 C318.076,62.5334,319.725,57.605,319.725,57.605 C319.725,57.605,310.548,54.7242,310.548,54.7242 C310.548,54.7242,306.21,56.0778,306.21,56.0778 z"/>
                      </defs>
                      <use xlink:href="#59" style="fill:#00b9f1;fill-opacity:1;fill-rule:evenodd;opacity:1;stroke:none;"/>
                    </g>
                  </defs>
                  <use xlink:href="#58"/>
                  <defs>
                    <title>Shape 7</title>
                    <g id="60">
                      <defs>
                        <path id="61" d="M310.548,54.7242 C310.548,54.7242,319.725,51.8088,319.725,51.8088 C319.725,51.8088,318.076,46.8804,318.076,46.8804 C318.076,46.8804,308.899,49.7611,308.899,49.7611 C308.899,49.7611,306.21,53.3359,306.21,53.3359 C306.21,53.3359,310.548,54.7242,310.548,54.7242 z"/>
                      </defs>
                      <use xlink:href="#61" style="fill:#d63aff;fill-opacity:1;fill-rule:evenodd;opacity:1;stroke:none;"/>
                    </g>
                  </defs>
                  <use xlink:href="#60"/>
                  <defs>
                    <title>Shape 8</title>
                    <g id="62">
                      <defs>
                        <path id="63" d="M293.161,54.7242 C293.161,54.7242,283.984,57.605,283.984,57.605 C283.984,57.605,285.633,62.5334,285.633,62.5334 C285.633,62.5334,294.81,59.6527,294.81,59.6527 C294.81,59.6527,297.499,56.0778,297.499,56.0778 C297.499,56.0778,293.161,54.7242,293.161,54.7242 z"/>
                      </defs>
                      <use xlink:href="#63" style="fill:#d63aff;fill-opacity:1;fill-rule:evenodd;opacity:1;stroke:none;"/>
                    </g>
                  </defs>
                  <use xlink:href="#62"/>
                  <defs>
                    <title>Shape 9</title>
                    <g id="64">
                      <defs>
                        <path id="65" d="M294.81,59.6527 C294.81,59.6527,289.146,67.2189,289.146,67.2189 C289.146,67.2189,293.484,70.2732,293.484,70.2732 C293.484,70.2732,299.184,62.707,299.184,62.707 C299.184,62.707,299.184,58.2991,299.184,58.2991 C299.184,58.2991,294.81,59.6527,294.81,59.6527 z"/>
                      </defs>
                      <use xlink:href="#65" style="fill:#fb015b;fill-opacity:1;fill-rule:evenodd;opacity:1;stroke:none;"/>
                    </g>
                  </defs>
                  <use xlink:href="#64"/>
                  <defs>
                    <title>Shape 10</title>
                    <g id="66">
                      <defs>
                        <path id="67" d="M308.899,49.7611 C308.899,49.7611,314.563,42.1948,314.563,42.1948 C314.563,42.1948,310.225,39.1406,310.225,39.1406 C310.225,39.1406,304.561,46.7068,304.561,46.7068 C304.561,46.7068,304.561,51.1147,304.561,51.1147 C304.561,51.1147,308.899,49.7611,308.899,49.7611 z"/>
                      </defs>
                      <use xlink:href="#67" style="fill:#fb015b;fill-opacity:1;fill-rule:evenodd;opacity:1;stroke:none;"/>
                    </g>
                  </defs>
                  <use xlink:href="#66"/>
                </g>
              </g>
            </g>
          </g>
        </g>
      </g>
      <clipPath id="69">
        <use xlink:href="#68"/>
        <path id="68" d="M283.841,37.2664 C283.841,37.2664,320.048,37.2664,320.048,37.2664 C320.048,37.2664,320.048,72.3209,320.048,72.3209 C320.048,72.3209,283.841,72.3209,283.841,72.3209 C283.841,72.3209,283.841,37.2664,283.841,37.2664 z"/>
      </clipPath>
      <g id="70" style="clip-path:url(#69);"/>
    </g>
    <g id="71">
      <title>Group</title>
      <defs>
        <title>Path</title>
        <g id="72">
          <defs>
            <path id="73" d="M133.784,23.7346 C151.137,23.7346,165.204,37.8015,165.204,55.1538 C165.204,72.5062,151.137,86.573,133.784,86.573 C116.431,86.573,102.364,72.5062,102.364,55.1538 C102.364,37.8015,116.431,23.7346,133.784,23.7346 z"/>
          </defs>
          <use xlink:href="#73" style="fill:#280a53;fill-opacity:1;fill-rule:evenodd;opacity:1;stroke:none;"/>
        </g>
      </defs>
      <use xlink:href="#72"/>
      <clipPath id="75">
        <use xlink:href="#74"/>
        <path id="74" d="M116.784,38.1539 C116.784,38.1539,150.784,38.1539,150.784,38.1539 C150.784,38.1539,150.784,72.1537,150.784,72.1537 C150.784,72.1537,116.784,72.1537,116.784,72.1537 C116.784,72.1537,116.784,38.1539,116.784,38.1539 z"/>
      </clipPath>
      <g id="76" style="clip-path:url(#75);">
        <title>ClipGroup</title>
        <defs>
          <title>Shape 26</title>
          <g id="77">
            <defs>
              <path id="78" d="M143.674,53.0093 C143.194,53.0093,142.714,53.0093,142.234,53.0093 C142.234,53.0093,142.234,49.1007,142.234,49.1007 C142.234,43.7428,138.68,39.8539,133.784,39.8539 C128.888,39.8539,125.334,43.7428,125.334,49.1007 C125.334,49.1007,125.334,53.0093,125.334,53.0093 C124.854,53.0093,124.374,53.0093,123.894,53.0093 C123.557,53.0093,123.234,53.1431,122.996,53.3813 C122.758,53.6195,122.624,53.9425,122.624,54.2794 C122.624,59.0365,122.624,63.7936,122.624,68.5508 C122.624,71.0881,144.944,71.0881,144.944,68.5508 C144.944,68.5508,144.944,54.2794,144.944,54.2794 C144.944,53.9425,144.81,53.6195,144.572,53.3813 C144.334,53.1431,144.011,53.0093,143.674,53.0093 z M127.885,49.1007 C127.885,45.2209,130.366,42.4048,133.784,42.4048 C137.202,42.4048,139.683,45.2209,139.683,49.1007 C139.683,49.1007,139.683,53.0093,139.683,53.0093 C135.75,53.0093,131.818,53.0093,127.885,53.0093 z M135.067,62.1546 C134.967,62.2079,134.903,62.3115,134.902,62.425 C134.902,62.425,134.902,65.0622,134.902,65.0622 C134.914,65.6723,134.452,66.1877,133.844,66.2416 C133.538,66.2581,133.238,66.1479,133.015,65.9368 C132.792,65.7257,132.666,65.4323,132.666,65.1254 C132.666,64.225,132.666,63.3246,132.666,62.4241 C132.665,62.3112,132.602,62.208,132.502,62.155 C131.453,61.571,130.931,60.3522,131.233,59.1903 C131.535,58.0285,132.583,57.2172,133.784,57.217 C134.984,57.2169,136.033,58.0278,136.335,59.1895 C136.637,60.3513,136.115,61.5703,135.067,62.1546 z"/>
            </defs>
            <use xlink:href="#78" style="fill:#000000;fill-opacity:1;fill-rule:evenodd;opacity:1;stroke:none;"/>
          </g>
        </defs>
        <use xlink:href="#77"/>
      </g>
      <clipPath id="80">
        <use xlink:href="#79"/>
        <path id="79" d="M116.784,38.1539 C116.784,38.1539,150.784,38.1539,150.784,38.1539 C150.784,38.1539,150.784,72.1537,150.784,72.1537 C150.784,72.1537,116.784,72.1537,116.784,72.1537 C116.784,72.1537,116.784,38.1539,116.784,38.1539 z"/>
      </clipPath>
      <g id="81" style="clip-path:url(#80);">
        <defs>
          <g id="82">
            <defs>
              <path id="83" d="M143.674,53.0093 C143.194,53.0093,142.714,53.0093,142.234,53.0093 C142.234,53.0093,142.234,49.1007,142.234,49.1007 C142.234,43.7428,138.68,39.8539,133.784,39.8539 C128.888,39.8539,125.334,43.7428,125.334,49.1007 C125.334,49.1007,125.334,53.0093,125.334,53.0093 C124.854,53.0093,124.374,53.0093,123.894,53.0093 C123.557,53.0093,123.234,53.1431,122.996,53.3813 C122.758,53.6195,122.624,53.9425,122.624,54.2794 C122.624,59.0365,122.624,63.7936,122.624,68.5507 C122.624,71.0881,144.944,71.0881,144.944,68.5507 C144.944,68.5507,144.944,54.2794,144.944,54.2794 C144.944,53.9425,144.81,53.6195,144.572,53.3813 C144.334,53.1431,144.011,53.0093,143.674,53.0093 z M127.885,49.1007 C127.885,45.2209,130.366,42.4048,133.784,42.4048 C137.202,42.4048,139.683,45.2209,139.683,49.1007 C139.683,49.1007,139.683,53.0093,139.683,53.0093 C135.75,53.0093,131.818,53.0093,127.885,53.0093 z M135.067,62.1546 C134.967,62.2079,134.903,62.3115,134.902,62.425 C134.902,62.425,134.902,65.0622,134.902,65.0622 C134.914,65.6723,134.452,66.1877,133.844,66.2416 C133.538,66.2581,133.238,66.1479,133.015,65.9368 C132.792,65.7257,132.666,65.4323,132.666,65.1254 C132.666,64.225,132.666,63.3246,132.666,62.4241 C132.665,62.3112,132.602,62.208,132.502,62.155 C131.453,61.571,130.931,60.3522,131.233,59.1903 C131.535,58.0285,132.583,57.2172,133.784,57.217 C134.984,57.2169,136.033,58.0278,136.335,59.1895 C136.637,60.3513,136.115,61.5703,135.067,62.1546 z"/>
            </defs>
            <use xlink:href="#83" style="fill:#ffffff;fill-opacity:1;fill-rule:nonzero;opacity:1;stroke:none;"/>
          </g>
        </defs>
        <use xlink:href="#82"/>
      </g>
    </g>
    <g id="84">
      <title>Group</title>
      <defs>
        <title>Path</title>
        <g id="85">
          <defs>
            <path id="86" d="M218.323,161.246 C235.123,161.246,248.743,174.865,248.743,191.666 C248.743,208.466,235.123,222.086,218.323,222.086 C201.522,222.086,187.903,208.466,187.903,191.666 C187.903,174.865,201.522,161.246,218.323,161.246 z"/>
          </defs>
          <use xlink:href="#86" style="fill:#280a53;fill-opacity:1;fill-rule:evenodd;opacity:1;stroke:none;"/>
        </g>
      </defs>
      <use xlink:href="#85"/>
      <clipPath id="88">
        <use xlink:href="#87"/>
        <path id="87" d="M248.743,209.731 C248.743,209.731,195.38,209.731,195.38,209.731 C195.38,209.731,195.38,173.601,195.38,173.601 C195.38,173.601,248.743,173.601,248.743,173.601"/>
      </clipPath>
      <g id="89" style="clip-path:url(#88);">
        <title>ClipGroup</title>
        <defs>
          <title>Shape 17</title>
          <g id="90">
            <defs>
              <path id="91" d="M208.781,191.092 C208.781,191.092,208.845,193.791,208.845,193.791 C208.845,193.791,211.687,195.553,211.687,195.553 C211.687,195.553,211.623,192.853,211.623,192.853 C211.623,192.853,208.781,191.092,208.781,191.092"/>
            </defs>
            <use xlink:href="#91" style="fill:#ffffff;fill-opacity:1;fill-rule:nonzero;opacity:1;stroke:none;"/>
          </g>
        </defs>
        <use xlink:href="#90"/>
        <defs>
          <title>Shape 18</title>
          <g id="92">
            <defs>
              <path id="93" d="M215.718,202.309 C215.718,202.309,215.655,199.666,215.655,199.666 C215.655,199.666,213.165,198.123,213.165,198.123 C213.128,198.1,213.095,198.073,213.059,198.049 C213.059,198.049,213.122,200.701,213.122,200.701 C213.122,200.701,215.718,202.309,215.718,202.309"/>
            </defs>
            <use xlink:href="#93" style="fill:#ffffff;fill-opacity:1;fill-rule:nonzero;opacity:1;stroke:none;"/>
          </g>
        </defs>
        <use xlink:href="#92"/>
        <defs>
          <title>Shape 19</title>
          <g id="94">
            <defs>
              <path id="95" d="M206.844,205.868 C206.844,205.868,200.346,201.842,200.346,201.842 C200.346,201.842,200.188,195.085,200.188,195.085 C200.188,195.085,203.373,193.711,203.373,193.711 C203.373,193.711,203.31,191.012,203.31,191.012 C203.31,191.012,198.226,193.204,198.226,193.204 C197.835,193.374,197.6,193.733,197.609,194.151 C197.609,194.151,197.8,202.258,197.8,202.258 C197.809,202.676,198.063,203.085,198.465,203.336 C198.465,203.336,206.258,208.165,206.258,208.165 C206.621,208.39,207.059,208.451,207.428,208.335 C207.467,208.322,207.503,208.308,207.538,208.294 C207.538,208.294,212.32,206.233,212.32,206.233 C212.32,206.233,209.726,204.625,209.726,204.625 C209.726,204.625,206.844,205.868,206.844,205.868"/>
            </defs>
            <use xlink:href="#95" style="fill:#ffffff;fill-opacity:1;fill-rule:nonzero;opacity:1;stroke:none;"/>
          </g>
        </defs>
        <use xlink:href="#94"/>
        <defs>
          <title>Shape 20</title>
          <g id="96">
            <defs>
              <path id="97" d="M227.839,190.938 C227.827,190.452,227.532,189.971,227.063,189.681 C227.063,189.681,217.603,183.818,217.603,183.818 C217.603,183.818,217.31,183.944,217.31,183.944 C217.31,183.944,217.377,186.781,217.377,186.781 C217.377,186.781,224.869,191.422,224.869,191.422 C224.869,191.422,225.048,199.014,225.048,199.014 C225.048,199.014,227.913,200.789,227.913,200.789 C227.913,200.789,228.069,200.722,228.069,200.722 C228.069,200.722,227.839,190.938,227.839,190.938"/>
            </defs>
            <use xlink:href="#97" style="fill:#fff9f9;fill-opacity:1;fill-rule:nonzero;opacity:1;stroke:none;"/>
          </g>
        </defs>
        <use xlink:href="#96"/>
        <defs>
          <title>Shape 21</title>
          <g id="98">
            <defs>
              <path id="99" d="M216.509,204.263 C216.509,204.263,207.719,198.816,207.719,198.816 C207.719,198.816,207.503,189.672,207.503,189.672 C207.503,189.672,211.508,187.947,211.508,187.947 C211.508,187.947,211.434,184.798,211.434,184.798 C211.434,184.798,205.216,187.479,205.216,187.479 C204.76,187.677,204.485,188.098,204.497,188.584 C204.497,188.584,204.75,199.303,204.75,199.303 C204.759,199.789,205.056,200.268,205.525,200.557 C205.525,200.557,215.827,206.944,215.827,206.944 C216.251,207.206,216.762,207.277,217.192,207.142 C217.236,207.127,217.279,207.111,217.321,207.093 C217.321,207.093,223.406,204.469,223.406,204.469 C223.406,204.469,220.38,202.594,220.38,202.594 C220.38,202.594,216.509,204.263,216.509,204.263"/>
            </defs>
            <use xlink:href="#99" style="fill:#ffffff;fill-opacity:1;fill-rule:nonzero;opacity:1;stroke:none;"/>
          </g>
        </defs>
        <use xlink:href="#98"/>
        <defs>
          <title>Shape 22</title>
          <g id="100">
            <defs>
              <path id="101" d="M227.81,202.188 C227.81,202.188,216.329,195.074,216.329,195.074 C216.329,195.074,216.047,183.134,216.047,183.134 C216.047,183.134,227.245,178.307,227.245,178.307 C227.245,178.307,238.725,185.419,238.725,185.419 C238.725,185.419,239.007,197.36,239.007,197.36 C239.007,197.36,227.81,202.188,227.81,202.188 z M241.235,183.43 C241.235,183.43,228.025,175.243,228.025,175.243 C227.538,174.941,226.957,174.861,226.46,175.018 C226.411,175.034,226.363,175.051,226.316,175.071 C226.316,175.071,213.432,180.628,213.432,180.628 C212.91,180.853,212.596,181.332,212.609,181.889 C212.609,181.889,212.933,195.63,212.933,195.63 C212.946,196.187,213.285,196.734,213.82,197.065 C213.82,197.065,227.029,205.25,227.029,205.25 C227.514,205.551,228.095,205.633,228.589,205.477 C228.638,205.461,228.688,205.443,228.737,205.422 C228.737,205.422,241.623,199.868,241.623,199.868 C242.145,199.643,242.458,199.161,242.444,198.604 C242.444,198.604,242.122,184.865,242.122,184.865 C242.109,184.309,241.77,183.762,241.235,183.43"/>
            </defs>
            <use xlink:href="#101" style="fill:#ffffff;fill-opacity:1;fill-rule:nonzero;opacity:1;stroke:none;"/>
          </g>
        </defs>
        <use xlink:href="#100"/>
      </g>
      <clipPath id="103">
        <use xlink:href="#102"/>
        <path id="102" d="M248.743,209.731 C248.743,209.731,195.38,209.731,195.38,209.731 C195.38,209.731,195.38,173.601,195.38,173.601 C195.38,173.601,248.743,173.601,248.743,173.601"/>
      </clipPath>
      <g id="104" style="clip-path:url(#103);"/>
    </g>
  </g>
</svg>
