<?xml version="1.0" encoding="utf-8"?>
<svg x="444.711pt" y="0pt" width="434.711pt" height="287.906pt" viewBox="444.711 0 434.711 287.906" xmlns="http://www.w3.org/2000/svg" xmlns:xlink="http://www.w3.org/1999/xlink">
  <g id="1">
    <title>1</title>
    <defs>
      <title>Smart Rectangle</title>
      <g id="2">
        <defs>
          <path id="3" d="M705.285,170.469 C705.285,174.888,701.703,178.469,697.285,178.469 C697.285,178.469,625.67,178.469,625.67,178.469 C621.252,178.469,617.67,174.888,617.67,170.469 C617.67,170.469,617.67,93.6679,617.67,93.6679 C617.67,89.2496,621.252,85.6679,625.67,85.6679 C625.67,85.6679,697.285,85.6679,697.285,85.6679 C701.703,85.6679,705.285,89.2496,705.285,93.6679 C705.285,93.6679,705.285,170.469,705.285,170.469 z"/>
        </defs>
        <use xlink:href="#3" style="fill:#bdda1a;fill-opacity:1;fill-rule:nonzero;opacity:1;stroke:none;"/>
      </g>
    </defs>
    <use xlink:href="#2"/>
    <clipPath id="5">
      <use xlink:href="#4"/>
      <path id="4" d="M440.711,82.0686 C440.711,82.0686,540.711,82.0686,540.711,82.0686 C540.711,82.0686,540.711,182.069,540.711,182.069 C540.711,182.069,440.711,182.069,440.711,182.069 C440.711,182.069,440.711,82.0686,440.711,82.0686 z"/>
    </clipPath>
    <g id="6" style="clip-path:url(#5);">
      <title>ClipGroup</title>
      <g id="7">
        <title>Group</title>
        <g id="8">
          <title>Group</title>
          <defs>
            <title>Shape 32</title>
            <g id="9">
              <defs>
                <path id="10" d="M460.877,176.578 C454.77,173.864,450.848,170.431,449.741,166.922 C449.741,166.922,449.741,152.083,449.741,152.083 C452.057,154.434,455.293,156.565,459.369,158.377 C467.755,162.103,478.862,164.156,490.644,164.156 C502.427,164.156,513.534,162.103,521.919,158.377 C525.996,156.565,529.232,154.434,531.547,152.083 C531.547,152.083,531.547,166.922,531.547,166.922 C530.441,170.431,526.519,173.864,520.412,176.578 C512.492,180.098,501.921,182.036,490.644,182.036 C479.368,182.036,468.796,180.098,460.877,176.578 z M518.883,86.7875 C527.069,89.9408,531.577,94.3934,531.577,99.3251 C531.577,104.257,527.069,108.709,518.883,111.863 C511.31,114.78,501.281,116.387,490.644,116.387 C480.006,116.387,469.977,114.78,462.404,111.863 C454.219,108.709,449.711,104.257,449.711,99.3251 C449.711,94.3934,454.219,89.9408,462.404,86.7875 C469.977,83.87,480.006,82.2632,490.644,82.2632 C501.281,82.2632,511.31,83.87,518.883,86.7875 z M460.877,132.985 C454.77,130.271,450.848,126.838,449.741,123.329 C449.741,123.329,449.741,108.49,449.741,108.49 C452.057,110.841,455.293,112.972,459.369,114.784 C467.755,118.51,478.862,120.562,490.644,120.562 C502.427,120.562,513.534,118.51,521.919,114.784 C525.996,112.972,529.232,110.841,531.547,108.49 C531.547,108.49,531.547,123.329,531.547,123.329 C530.441,126.838,526.519,130.271,520.412,132.985 C512.492,136.505,501.921,138.443,490.644,138.443 C479.368,138.443,468.796,136.505,460.877,132.985 z M460.877,154.958 C454.77,152.244,450.848,148.811,449.741,145.302 C449.741,145.302,449.741,130.463,449.741,130.463 C452.057,132.814,455.293,134.945,459.369,136.757 C467.755,140.483,478.862,142.535,490.644,142.535 C502.427,142.535,513.534,140.483,521.919,136.757 C525.996,134.945,529.232,132.814,531.547,130.463 C531.547,130.463,531.547,145.302,531.547,145.302 C530.441,148.811,526.519,152.244,520.412,154.958 C512.492,158.478,501.921,160.416,490.644,160.416 C479.368,160.416,468.796,158.478,460.877,154.958 z"/>
              </defs>
              <use xlink:href="#10" style="fill:#00beda;fill-opacity:1;fill-rule:evenodd;opacity:1;stroke:none;"/>
            </g>
          </defs>
          <use xlink:href="#9"/>
        </g>
      </g>
    </g>
    <clipPath id="12">
      <use xlink:href="#11"/>
      <path id="11" d="M440.711,82.0686 C440.711,82.0686,540.711,82.0686,540.711,82.0686 C540.711,82.0686,540.711,182.069,540.711,182.069 C540.711,182.069,440.711,182.069,440.711,182.069 C440.711,182.069,440.711,82.0686,440.711,82.0686 z"/>
    </clipPath>
    <g id="13" style="clip-path:url(#12);"/>
    <defs>
      <title>Path</title>
      <g id="14">
        <defs>
          <path id="15" d="M530.506,131.863 C530.506,131.863,618.287,132.028,618.287,132.028"/>
        </defs>
        <use xlink:href="#15" style="fill:none;opacity:1;stroke:#5e009b;stroke-linecap:butt;stroke-linejoin:miter;stroke-miterlimit:10;stroke-opacity:1;stroke-width:10;"/>
      </g>
    </defs>
    <use xlink:href="#14"/>
    <g id="16">
      <title>Group</title>
      <defs>
        <title>Path</title>
        <g id="17">
          <defs>
            <path id="18" d="M572.396,100.444 C589.749,100.444,603.816,114.511,603.816,131.863 C603.816,149.216,589.749,163.282,572.396,163.282 C555.044,163.282,540.976,149.216,540.976,131.863 C540.976,114.511,555.044,100.444,572.396,100.444 z"/>
          </defs>
          <use xlink:href="#18" style="fill:#280a53;fill-opacity:1;fill-rule:evenodd;opacity:1;stroke:none;"/>
        </g>
      </defs>
      <use xlink:href="#17"/>
      <clipPath id="20">
        <use xlink:href="#19"/>
        <path id="19" d="M555.396,114.863 C555.396,114.863,589.397,114.863,589.397,114.863 C589.397,114.863,589.397,148.863,589.397,148.863 C589.397,148.863,555.396,148.863,555.396,148.863 C555.396,148.863,555.396,114.863,555.396,114.863 z"/>
      </clipPath>
      <g id="21" style="clip-path:url(#20);">
        <title>ClipGroup</title>
        <defs>
          <title>Shape 26</title>
          <g id="22">
            <defs>
              <path id="23" d="M582.286,129.719 C581.806,129.719,581.326,129.719,580.846,129.719 C580.846,129.719,580.846,125.81,580.846,125.81 C580.846,120.452,577.293,116.563,572.396,116.563 C567.5,116.563,563.946,120.452,563.946,125.81 C563.946,125.81,563.946,129.719,563.946,129.719 C563.466,129.719,562.986,129.719,562.506,129.719 C562.169,129.719,561.846,129.853,561.608,130.091 C561.37,130.329,561.236,130.652,561.236,130.989 C561.236,135.746,561.236,140.503,561.236,145.26 C561.236,147.798,583.557,147.798,583.557,145.26 C583.557,145.26,583.557,130.989,583.557,130.989 C583.557,130.652,583.423,130.329,583.185,130.091 C582.946,129.853,582.623,129.719,582.286,129.719 z M566.497,125.81 C566.497,121.93,568.978,119.114,572.396,119.114 C575.814,119.114,578.295,121.93,578.295,125.81 C578.295,125.81,578.295,129.719,578.295,129.719 C574.363,129.719,570.43,129.719,566.497,129.719 z M573.679,138.864 C573.579,138.917,573.516,139.021,573.514,139.134 C573.514,139.134,573.514,141.772,573.514,141.772 C573.527,142.382,573.064,142.897,572.456,142.951 C572.15,142.968,571.85,142.857,571.628,142.646 C571.405,142.435,571.279,142.142,571.279,141.835 C571.279,140.934,571.279,140.034,571.279,139.134 C571.277,139.021,571.214,138.917,571.114,138.864 C570.065,138.28,569.544,137.062,569.845,135.9 C570.147,134.738,571.196,133.927,572.396,133.926 C573.596,133.926,574.645,134.737,574.947,135.899 C575.249,137.061,574.728,138.28,573.679,138.864 z"/>
            </defs>
            <use xlink:href="#23" style="fill:#000000;fill-opacity:1;fill-rule:evenodd;opacity:1;stroke:none;"/>
          </g>
        </defs>
        <use xlink:href="#22"/>
      </g>
      <clipPath id="25">
        <use xlink:href="#24"/>
        <path id="24" d="M555.396,114.863 C555.396,114.863,589.397,114.863,589.397,114.863 C589.397,114.863,589.397,148.863,589.397,148.863 C589.397,148.863,555.396,148.863,555.396,148.863 C555.396,148.863,555.396,114.863,555.396,114.863 z"/>
      </clipPath>
      <g id="26" style="clip-path:url(#25);">
        <defs>
          <g id="27">
            <defs>
              <path id="28" d="M582.286,129.719 C581.806,129.719,581.326,129.719,580.846,129.719 C580.846,129.719,580.846,125.81,580.846,125.81 C580.846,120.452,577.293,116.563,572.396,116.563 C567.5,116.563,563.946,120.452,563.946,125.81 C563.946,125.81,563.946,129.719,563.946,129.719 C563.466,129.719,562.986,129.719,562.506,129.719 C562.169,129.719,561.846,129.853,561.608,130.091 C561.37,130.329,561.236,130.652,561.236,130.989 C561.236,135.746,561.236,140.503,561.236,145.26 C561.236,147.798,583.557,147.798,583.557,145.26 C583.557,145.26,583.557,130.989,583.557,130.989 C583.557,130.652,583.423,130.329,583.185,130.091 C582.946,129.853,582.623,129.719,582.286,129.719 z M566.497,125.81 C566.497,121.93,568.978,119.114,572.396,119.114 C575.814,119.114,578.295,121.93,578.295,125.81 C578.295,125.81,578.295,129.719,578.295,129.719 C574.363,129.719,570.43,129.719,566.497,129.719 z M573.679,138.864 C573.579,138.917,573.516,139.021,573.514,139.134 C573.514,139.134,573.514,141.772,573.514,141.772 C573.527,142.382,573.064,142.897,572.456,142.951 C572.15,142.968,571.85,142.857,571.628,142.646 C571.405,142.435,571.279,142.142,571.279,141.835 C571.279,140.934,571.279,140.034,571.279,139.134 C571.277,139.021,571.214,138.917,571.114,138.864 C570.065,138.28,569.544,137.062,569.845,135.9 C570.147,134.738,571.196,133.927,572.396,133.926 C573.596,133.926,574.645,134.737,574.947,135.899 C575.249,137.061,574.728,138.28,573.679,138.864 z"/>
            </defs>
            <use xlink:href="#28" style="fill:#ffffff;fill-opacity:1;fill-rule:nonzero;opacity:1;stroke:none;"/>
          </g>
        </defs>
        <use xlink:href="#27"/>
      </g>
    </g>
    <defs>
      <title>Path</title>
      <g id="29">
        <defs>
          <path id="30" d="M704.109,132 C704.109,132,814.222,132.165,814.222,132.165"/>
        </defs>
        <use xlink:href="#30" style="fill:none;opacity:1;stroke:#5e009b;stroke-linecap:butt;stroke-linejoin:miter;stroke-miterlimit:10;stroke-opacity:1;stroke-width:10;"/>
      </g>
    </defs>
    <use xlink:href="#29"/>
    <g id="31">
      <title>Group</title>
      <defs>
        <title>Path</title>
        <g id="32">
          <defs>
            <path id="33" d="M746,100.581 C763.353,100.581,777.42,114.648,777.42,132 C777.42,149.352,763.353,163.419,746,163.419 C728.647,163.419,714.58,149.352,714.58,132 C714.58,114.648,728.647,100.581,746,100.581 z"/>
          </defs>
          <use xlink:href="#33" style="fill:#280a53;fill-opacity:1;fill-rule:evenodd;opacity:1;stroke:none;"/>
        </g>
      </defs>
      <use xlink:href="#32"/>
      <clipPath id="35">
        <use xlink:href="#34"/>
        <path id="34" d="M729,115 C729,115,763,115,763,115 C763,115,763,149,763,149 C763,149,729,149,729,149 C729,149,729,115,729,115 z"/>
      </clipPath>
      <g id="36" style="clip-path:url(#35);">
        <title>ClipGroup</title>
        <defs>
          <title>Shape 26</title>
          <g id="37">
            <defs>
              <path id="38" d="M755.89,129.855 C755.41,129.855,754.93,129.855,754.45,129.855 C754.45,129.855,754.45,125.947,754.45,125.947 C754.45,120.589,750.896,116.7,746,116.7 C741.104,116.7,737.55,120.589,737.55,125.947 C737.55,125.947,737.55,129.855,737.55,129.855 C737.07,129.855,736.59,129.855,736.11,129.855 C735.773,129.855,735.45,129.989,735.212,130.227 C734.974,130.466,734.84,130.789,734.84,131.126 C734.84,135.883,734.84,140.64,734.84,145.397 C734.84,147.934,757.16,147.934,757.16,145.397 C757.16,145.397,757.16,131.126,757.16,131.126 C757.16,130.789,757.026,130.466,756.788,130.227 C756.55,129.989,756.227,129.855,755.89,129.855 z M740.101,125.947 C740.101,122.067,742.582,119.251,746,119.251 C749.418,119.251,751.899,122.067,751.899,125.947 C751.899,125.947,751.899,129.855,751.899,129.855 C747.966,129.855,744.034,129.855,740.101,129.855 z M747.283,139.001 C747.183,139.054,747.12,139.158,747.118,139.271 C747.118,139.271,747.118,141.908,747.118,141.908 C747.13,142.518,746.668,143.034,746.06,143.088 C745.754,143.104,745.454,142.994,745.231,142.783 C745.008,142.572,744.882,142.278,744.882,141.972 C744.882,141.071,744.882,140.171,744.882,139.27 C744.881,139.157,744.818,139.054,744.718,139.001 C743.669,138.417,743.147,137.198,743.449,136.036 C743.751,134.875,744.799,134.063,746,134.063 C747.2,134.063,748.249,134.874,748.551,136.036 C748.853,137.197,748.332,138.416,747.283,139.001 z"/>
            </defs>
            <use xlink:href="#38" style="fill:#000000;fill-opacity:1;fill-rule:evenodd;opacity:1;stroke:none;"/>
          </g>
        </defs>
        <use xlink:href="#37"/>
      </g>
      <clipPath id="40">
        <use xlink:href="#39"/>
        <path id="39" d="M729,115 C729,115,763,115,763,115 C763,115,763,149,763,149 C763,149,729,149,729,149 C729,149,729,115,729,115 z"/>
      </clipPath>
      <g id="41" style="clip-path:url(#40);">
        <defs>
          <g id="42">
            <defs>
              <path id="43" d="M755.89,129.855 C755.41,129.855,754.93,129.855,754.45,129.855 C754.45,129.855,754.45,125.947,754.45,125.947 C754.45,120.589,750.896,116.7,746,116.7 C741.104,116.7,737.55,120.589,737.55,125.947 C737.55,125.947,737.55,129.855,737.55,129.855 C737.07,129.855,736.59,129.855,736.11,129.855 C735.773,129.855,735.45,129.989,735.212,130.227 C734.974,130.466,734.84,130.789,734.84,131.126 C734.84,135.883,734.84,140.64,734.84,145.397 C734.84,147.934,757.16,147.934,757.16,145.397 C757.16,145.397,757.16,131.126,757.16,131.126 C757.16,130.789,757.026,130.466,756.788,130.227 C756.55,129.989,756.227,129.855,755.89,129.855 z M740.101,125.947 C740.101,122.067,742.582,119.251,746,119.251 C749.418,119.251,751.899,122.067,751.899,125.947 C751.899,125.947,751.899,129.855,751.899,129.855 C747.966,129.855,744.034,129.855,740.101,129.855 z M747.283,139.001 C747.183,139.054,747.12,139.158,747.118,139.271 C747.118,139.271,747.118,141.908,747.118,141.908 C747.13,142.518,746.668,143.034,746.06,143.088 C745.754,143.104,745.454,142.994,745.231,142.783 C745.008,142.572,744.882,142.278,744.882,141.972 C744.882,141.071,744.882,140.171,744.882,139.27 C744.881,139.157,744.818,139.054,744.718,139.001 C743.669,138.417,743.147,137.198,743.449,136.036 C743.751,134.875,744.799,134.063,746,134.063 C747.2,134.063,748.249,134.874,748.551,136.036 C748.853,137.197,748.332,138.416,747.283,139.001 z"/>
            </defs>
            <use xlink:href="#43" style="fill:#ffffff;fill-opacity:1;fill-rule:nonzero;opacity:1;stroke:none;"/>
          </g>
        </defs>
        <use xlink:href="#42"/>
      </g>
    </g>
    <g id="44">
      <title>Group</title>
      <linearGradient x1="780.583" y1="135.192" x2="880.016" y2="135.192" gradientUnits="userSpaceOnUse" id="47">
        <stop offset="0.522911" style="stop-color:#00beda;stop-opacity:1;"/>
        <stop offset="0.846603" style="stop-color:#80deec;stop-opacity:0.497614;"/>
        <stop offset="1" style="stop-color:#ffffff;stop-opacity:0;"/>
      </linearGradient>
      <defs>
        <title>Shape 30</title>
        <g id="45">
          <defs>
            <path id="46" d="M880.016,198.71 C880.016,198.71,820.654,198.71,820.654,198.71 C798.56,198.71,780.583,180.728,780.583,158.639 C780.583,146.143,786.37,134.476,796.202,126.899 C795.576,124.049,795.25,121.163,795.25,118.293 C795.25,96.1934,813.233,78.2108,835.327,78.2108 C839.402,78.2108,843.452,78.8469,847.398,80.1088 C855.27,74.5853,864.45,71.6735,874.075,71.6735"/>
          </defs>
          <use xlink:href="#46" style="fill:url(#47);fill-opacity:1;fill-rule:evenodd;opacity:1;stroke:none;"/>
        </g>
      </defs>
      <use xlink:href="#45"/>
    </g>
  </g>
</svg>
