<?xml version="1.0" encoding="utf-8"?>
<svg x="889.422pt" y="0pt" width="434.711pt" height="287.906pt" viewBox="889.422 0 434.711 287.906" xmlns="http://www.w3.org/2000/svg" xmlns:xlink="http://www.w3.org/1999/xlink">
  <g id="1">
    <title>1</title>
    <g id="2">
      <title>Group</title>
      <defs>
        <title>Path</title>
        <g id="3">
          <defs>
            <path id="4" d="M990.041,119.878 C990.041,119.878,957.277,92.1328,957.277,92.1328"/>
          </defs>
          <use xlink:href="#4" style="fill:none;opacity:1;stroke:#5e009b;stroke-linecap:butt;stroke-linejoin:miter;stroke-miterlimit:10;stroke-opacity:1;stroke-width:10;"/>
        </g>
      </defs>
      <use xlink:href="#3"/>
      <defs>
        <title>Path</title>
        <g id="5">
          <defs>
            <path id="6" d="M980.408,136.633 C980.408,136.633,957.277,136.633,957.277,136.633"/>
          </defs>
          <use xlink:href="#6" style="fill:none;opacity:1;stroke:#5e009b;stroke-linecap:butt;stroke-linejoin:miter;stroke-miterlimit:10;stroke-opacity:1;stroke-width:10;"/>
        </g>
      </defs>
      <use xlink:href="#5"/>
      <defs>
        <title>Path</title>
        <g id="7">
          <defs>
            <path id="8" d="M1048.42,180.627 C1048.42,180.627,1015.65,152.882,1015.65,152.882"/>
          </defs>
          <use xlink:href="#8" style="fill:none;opacity:1;stroke:#5e009b;stroke-linecap:butt;stroke-linejoin:miter;stroke-miterlimit:10;stroke-opacity:1;stroke-width:10;"/>
        </g>
      </defs>
      <use xlink:href="#7"/>
      <defs>
        <title>Path</title>
        <g id="9">
          <defs>
            <path id="10" d="M955.118,179.873 C955.118,179.873,987.882,152.127,987.882,152.127"/>
          </defs>
          <use xlink:href="#10" style="fill:none;opacity:1;stroke:#5e009b;stroke-linecap:butt;stroke-linejoin:miter;stroke-miterlimit:10;stroke-opacity:1;stroke-width:10;"/>
        </g>
      </defs>
      <use xlink:href="#9"/>
      <defs>
        <title>Path</title>
        <g id="11">
          <defs>
            <path id="12" d="M1012.55,116.174 C1012.55,116.174,1045.32,88.4287,1045.32,88.4287"/>
          </defs>
          <use xlink:href="#12" style="fill:none;opacity:1;stroke:#5e009b;stroke-linecap:butt;stroke-linejoin:miter;stroke-miterlimit:10;stroke-opacity:1;stroke-width:10;"/>
        </g>
      </defs>
      <use xlink:href="#11"/>
      <defs>
        <title>Path</title>
        <g id="13">
          <defs>
            <path id="14" d="M1002.85,112.752 C1002.85,112.752,1002.85,71.1346,1002.85,71.1346"/>
          </defs>
          <use xlink:href="#14" style="fill:none;opacity:1;stroke:#5e009b;stroke-linecap:butt;stroke-linejoin:miter;stroke-miterlimit:10;stroke-opacity:1;stroke-width:10;"/>
        </g>
      </defs>
      <use xlink:href="#13"/>
      <defs>
        <title>Path</title>
        <g id="15">
          <defs>
            <path id="16" d="M1002.85,200.681 C1002.85,200.681,1002.85,159.064,1002.85,159.064"/>
          </defs>
          <use xlink:href="#16" style="fill:none;opacity:1;stroke:#5e009b;stroke-linecap:butt;stroke-linejoin:miter;stroke-miterlimit:10;stroke-opacity:1;stroke-width:10;"/>
        </g>
      </defs>
      <use xlink:href="#15"/>
      <defs>
        <title>Path</title>
        <g id="17">
          <defs>
            <path id="18" d="M1002.85,112.752 C1015.24,112.752,1025.29,122.799,1025.29,135.192 C1025.29,147.585,1015.24,157.632,1002.85,157.632 C990.455,157.632,980.408,147.585,980.408,135.192 C980.408,122.799,990.455,112.752,1002.85,112.752 z"/>
          </defs>
          <use xlink:href="#18" style="fill:none;opacity:1;stroke:#5f0099;stroke-linecap:butt;stroke-linejoin:miter;stroke-miterlimit:10;stroke-opacity:1;stroke-width:10;"/>
        </g>
      </defs>
      <use xlink:href="#17"/>
      <defs>
        <title>Smart Rectangle</title>
        <g id="19">
          <defs>
            <path id="20" d="M1015.63,79.0038 C1015.62,83.422,1012.03,86.9964,1007.61,86.9874 C1007.61,86.9874,998.025,86.9678,998.025,86.9678 C993.607,86.9588,990.032,83.3698,990.041,78.9515 C990.041,78.9515,990.071,64.3432,990.071,64.3432 C990.08,59.925,993.669,56.3506,998.087,56.3596 C998.087,56.3596,1007.67,56.3792,1007.67,56.3792 C1012.09,56.3882,1015.66,59.9772,1015.66,64.3955 C1015.66,64.3955,1015.63,79.0038,1015.63,79.0038 z"/>
          </defs>
          <use xlink:href="#20" style="fill:#04bdda;fill-opacity:1;fill-rule:nonzero;opacity:1;stroke:none;"/>
        </g>
      </defs>
      <use xlink:href="#19"/>
      <defs>
        <title>Smart Rectangle</title>
        <g id="21">
          <defs>
            <path id="22" d="M970.054,94.3177 C970.045,98.7359,966.456,102.31,962.038,102.301 C962.038,102.301,952.454,102.282,952.454,102.282 C948.036,102.273,944.461,98.6837,944.47,94.2654 C944.47,94.2654,944.5,79.6572,944.5,79.6572 C944.509,75.2389,948.098,71.6645,952.517,71.6735 C952.517,71.6735,962.101,71.6931,962.101,71.6931 C966.519,71.7021,970.093,75.2912,970.084,79.7094 C970.084,79.7094,970.054,94.3177,970.054,94.3177 z"/>
          </defs>
          <use xlink:href="#22" style="fill:#04bdda;fill-opacity:1;fill-rule:nonzero;opacity:1;stroke:none;"/>
        </g>
      </defs>
      <use xlink:href="#21"/>
      <defs>
        <title>Smart Rectangle</title>
        <g id="23">
          <defs>
            <path id="24" d="M957.248,142.522 C957.239,146.94,953.65,150.515,949.231,150.506 C949.231,150.506,939.647,150.486,939.647,150.486 C935.229,150.477,931.655,146.888,931.664,142.47 C931.664,142.47,931.693,127.862,931.693,127.862 C931.702,123.443,935.291,119.869,939.71,119.878 C939.71,119.878,949.294,119.898,949.294,119.898 C953.712,119.907,957.286,123.496,957.277,127.914 C957.277,127.914,957.248,142.522,957.248,142.522 z"/>
          </defs>
          <use xlink:href="#24" style="fill:#04bdda;fill-opacity:1;fill-rule:nonzero;opacity:1;stroke:none;"/>
        </g>
      </defs>
      <use xlink:href="#23"/>
      <defs>
        <title>Smart Rectangle</title>
        <g id="25">
          <defs>
            <path id="26" d="M970.054,189.399 C970.045,193.817,966.456,197.392,962.038,197.383 C962.038,197.383,952.454,197.363,952.454,197.363 C948.036,197.354,944.461,193.765,944.47,189.347 C944.47,189.347,944.5,174.738,944.5,174.738 C944.509,170.32,948.098,166.746,952.517,166.755 C952.517,166.755,962.101,166.774,962.101,166.774 C966.519,166.783,970.093,170.372,970.084,174.791 C970.084,174.791,970.054,189.399,970.054,189.399 z"/>
          </defs>
          <use xlink:href="#26" style="fill:#beda00;fill-opacity:1;fill-rule:nonzero;opacity:1;stroke:none;"/>
        </g>
      </defs>
      <use xlink:href="#25"/>
      <defs>
        <title>Smart Rectangle</title>
        <g id="27">
          <defs>
            <path id="28" d="M1015.63,204.713 C1015.62,209.131,1012.03,212.705,1007.61,212.696 C1007.61,212.696,998.025,212.677,998.025,212.677 C993.607,212.668,990.032,209.079,990.041,204.661 C990.041,204.661,990.071,190.052,990.071,190.052 C990.08,185.634,993.669,182.06,998.087,182.069 C998.087,182.069,1007.67,182.088,1007.67,182.088 C1012.09,182.097,1015.66,185.686,1015.66,190.105 C1015.66,190.105,1015.63,204.713,1015.63,204.713 z"/>
          </defs>
          <use xlink:href="#28" style="fill:#04bdda;fill-opacity:1;fill-rule:nonzero;opacity:1;stroke:none;"/>
        </g>
      </defs>
      <use xlink:href="#27"/>
      <defs>
        <title>Smart Rectangle</title>
        <g id="29">
          <defs>
            <path id="30" d="M1054.52,190.727 C1054.51,195.145,1050.92,198.719,1046.5,198.71 C1046.5,198.71,1036.92,198.691,1036.92,198.691 C1032.5,198.682,1028.92,195.093,1028.93,190.674 C1028.93,190.674,1028.96,176.066,1028.96,176.066 C1028.97,171.648,1032.56,168.073,1036.98,168.082 C1036.98,168.082,1046.56,168.102,1046.56,168.102 C1050.98,168.111,1054.56,171.7,1054.55,176.118 C1054.55,176.118,1054.52,190.727,1054.52,190.727 z"/>
          </defs>
          <use xlink:href="#30" style="fill:#04bdda;fill-opacity:1;fill-rule:nonzero;opacity:1;stroke:none;"/>
        </g>
      </defs>
      <use xlink:href="#29"/>
      <defs>
        <title>Smart Rectangle</title>
        <g id="31">
          <defs>
            <path id="32" d="M1054.52,92.9982 C1054.51,97.4164,1050.92,100.991,1046.5,100.982 C1046.5,100.982,1036.92,100.962,1036.92,100.962 C1032.5,100.953,1028.92,97.3642,1028.93,92.9459 C1028.93,92.9459,1028.96,78.3376,1028.96,78.3376 C1028.97,73.9194,1032.56,70.345,1036.98,70.354 C1036.98,70.354,1046.56,70.3736,1046.56,70.3736 C1050.98,70.3826,1054.56,73.9716,1054.55,78.3899 C1054.55,78.3899,1054.52,92.9982,1054.52,92.9982 z"/>
          </defs>
          <use xlink:href="#32" style="fill:#04bdda;fill-opacity:1;fill-rule:nonzero;opacity:1;stroke:none;"/>
        </g>
      </defs>
      <use xlink:href="#31"/>
    </g>
    <g id="33">
      <title>Group</title>
      <defs>
        <title>Path</title>
        <g id="34">
          <defs>
            <path id="35" d="M1219.38,118.542 C1219.38,118.542,1252.14,90.7967,1252.14,90.7967"/>
          </defs>
          <use xlink:href="#35" style="fill:none;opacity:1;stroke:#5e009b;stroke-linecap:butt;stroke-linejoin:miter;stroke-miterlimit:10;stroke-opacity:1;stroke-width:10;"/>
        </g>
      </defs>
      <use xlink:href="#34"/>
      <defs>
        <title>Path</title>
        <g id="36">
          <defs>
            <path id="37" d="M1229.01,135.297 C1229.01,135.297,1252.14,135.297,1252.14,135.297"/>
          </defs>
          <use xlink:href="#37" style="fill:none;opacity:1;stroke:#5e009b;stroke-linecap:butt;stroke-linejoin:miter;stroke-miterlimit:10;stroke-opacity:1;stroke-width:10;"/>
        </g>
      </defs>
      <use xlink:href="#36"/>
      <defs>
        <title>Path</title>
        <g id="38">
          <defs>
            <path id="39" d="M1161,179.291 C1161,179.291,1193.77,151.546,1193.77,151.546"/>
          </defs>
          <use xlink:href="#39" style="fill:none;opacity:1;stroke:#5e009b;stroke-linecap:butt;stroke-linejoin:miter;stroke-miterlimit:10;stroke-opacity:1;stroke-width:10;"/>
        </g>
      </defs>
      <use xlink:href="#38"/>
      <defs>
        <title>Path</title>
        <g id="40">
          <defs>
            <path id="41" d="M1254.3,178.536 C1254.3,178.536,1221.54,150.791,1221.54,150.791"/>
          </defs>
          <use xlink:href="#41" style="fill:none;opacity:1;stroke:#5e009b;stroke-linecap:butt;stroke-linejoin:miter;stroke-miterlimit:10;stroke-opacity:1;stroke-width:10;"/>
        </g>
      </defs>
      <use xlink:href="#40"/>
      <defs>
        <title>Path</title>
        <g id="42">
          <defs>
            <path id="43" d="M1196.87,114.838 C1196.87,114.838,1164.11,87.0926,1164.11,87.0926"/>
          </defs>
          <use xlink:href="#43" style="fill:none;opacity:1;stroke:#5e009b;stroke-linecap:butt;stroke-linejoin:miter;stroke-miterlimit:10;stroke-opacity:1;stroke-width:10;"/>
        </g>
      </defs>
      <use xlink:href="#42"/>
      <defs>
        <title>Path</title>
        <g id="44">
          <defs>
            <path id="45" d="M1206.57,111.416 C1206.57,111.416,1206.57,69.7985,1206.57,69.7985"/>
          </defs>
          <use xlink:href="#45" style="fill:none;opacity:1;stroke:#5e009b;stroke-linecap:butt;stroke-linejoin:miter;stroke-miterlimit:10;stroke-opacity:1;stroke-width:10;"/>
        </g>
      </defs>
      <use xlink:href="#44"/>
      <defs>
        <title>Path</title>
        <g id="46">
          <defs>
            <path id="47" d="M1206.57,199.345 C1206.57,199.345,1206.57,157.728,1206.57,157.728"/>
          </defs>
          <use xlink:href="#47" style="fill:none;opacity:1;stroke:#5e009b;stroke-linecap:butt;stroke-linejoin:miter;stroke-miterlimit:10;stroke-opacity:1;stroke-width:10;"/>
        </g>
      </defs>
      <use xlink:href="#46"/>
      <defs>
        <title>Path</title>
        <g id="48">
          <defs>
            <path id="49" d="M1206.57,111.416 C1194.18,111.416,1184.13,121.463,1184.13,133.856 C1184.13,146.249,1194.18,156.295,1206.57,156.295 C1218.97,156.295,1229.01,146.249,1229.01,133.856 C1229.01,121.463,1218.97,111.416,1206.57,111.416 z"/>
          </defs>
          <use xlink:href="#49" style="fill:none;opacity:1;stroke:#5f0099;stroke-linecap:butt;stroke-linejoin:miter;stroke-miterlimit:10;stroke-opacity:1;stroke-width:10;"/>
        </g>
      </defs>
      <use xlink:href="#48"/>
      <defs>
        <title>Smart Rectangle</title>
        <g id="50">
          <defs>
            <path id="51" d="M1193.8,77.6676 C1193.81,82.0859,1197.39,85.6603,1201.81,85.6512 C1201.81,85.6512,1211.4,85.6317,1211.4,85.6317 C1213.52,85.6273,1215.55,84.7803,1217.05,83.277 C1217.05,83.277,1217.05,83.277,1217.05,83.277 C1218.55,81.7736,1219.38,79.7371,1219.38,77.6153 C1219.38,77.6153,1219.35,63.0071,1219.35,63.0071 C1219.35,60.8854,1218.5,58.8523,1217,57.355 C1217,57.355,1217,57.355,1217,57.355 C1215.49,55.8578,1213.46,55.0191,1211.33,55.0234 C1211.33,55.0234,1201.75,55.043,1201.75,55.043 C1197.33,55.052,1193.76,58.6411,1193.77,63.0593 C1193.77,63.0593,1193.8,77.6676,1193.8,77.6676 z"/>
          </defs>
          <use xlink:href="#51" style="fill:#beda00;fill-opacity:1;fill-rule:nonzero;opacity:1;stroke:none;"/>
        </g>
      </defs>
      <use xlink:href="#50"/>
      <defs>
        <title>Smart Rectangle</title>
        <g id="52">
          <defs>
            <path id="53" d="M1239.37,92.9815 C1239.38,97.3998,1242.97,100.974,1247.38,100.965 C1247.38,100.965,1256.97,100.946,1256.97,100.946 C1259.09,100.941,1261.12,100.094,1262.62,98.5909 C1262.62,98.5909,1262.62,98.5909,1262.62,98.5909 C1264.12,97.0875,1264.96,95.051,1264.95,92.9292 C1264.95,92.9292,1264.92,78.321,1264.92,78.321 C1264.92,76.1993,1264.07,74.1662,1262.57,72.6689 C1262.57,72.6689,1262.57,72.6689,1262.57,72.6689 C1261.06,71.1717,1259.03,70.333,1256.91,70.3374 C1256.91,70.3374,1247.32,70.3569,1247.32,70.3569 C1242.9,70.366,1239.33,73.955,1239.34,78.3733 C1239.34,78.3733,1239.37,92.9815,1239.37,92.9815 z"/>
          </defs>
          <use xlink:href="#53" style="fill:#04bdda;fill-opacity:1;fill-rule:nonzero;opacity:1;stroke:none;"/>
        </g>
      </defs>
      <use xlink:href="#52"/>
      <defs>
        <title>Smart Rectangle</title>
        <g id="54">
          <defs>
            <path id="55" d="M1252.17,141.186 C1252.18,145.604,1255.77,149.179,1260.19,149.17 C1260.19,149.17,1269.77,149.15,1269.77,149.15 C1271.9,149.146,1273.93,148.299,1275.43,146.795 C1275.43,146.795,1275.43,146.795,1275.43,146.795 C1276.92,145.292,1277.76,143.255,1277.76,141.134 C1277.76,141.134,1277.73,126.525,1277.73,126.525 C1277.72,124.404,1276.88,122.371,1275.37,120.873 C1275.37,120.873,1275.37,120.873,1275.37,120.873 C1273.87,119.376,1271.83,118.537,1269.71,118.542 C1269.71,118.542,1260.13,118.561,1260.13,118.561 C1255.71,118.57,1252.14,122.159,1252.14,126.578 C1252.14,126.578,1252.17,141.186,1252.17,141.186 z"/>
          </defs>
          <use xlink:href="#55" style="fill:#04bdda;fill-opacity:1;fill-rule:nonzero;opacity:1;stroke:none;"/>
        </g>
      </defs>
      <use xlink:href="#54"/>
      <defs>
        <title>Smart Rectangle</title>
        <g id="56">
          <defs>
            <path id="57" d="M1239.37,188.063 C1239.38,192.481,1242.97,196.055,1247.38,196.046 C1247.38,196.046,1256.97,196.027,1256.97,196.027 C1259.09,196.022,1261.12,195.175,1262.62,193.672 C1262.62,193.672,1262.62,193.672,1262.62,193.672 C1264.12,192.169,1264.96,190.132,1264.95,188.01 C1264.95,188.01,1264.92,173.402,1264.92,173.402 C1264.92,171.28,1264.07,169.247,1262.57,167.75 C1262.57,167.75,1262.57,167.75,1262.57,167.75 C1261.06,166.253,1259.03,165.414,1256.91,165.419 C1256.91,165.419,1247.32,165.438,1247.32,165.438 C1242.9,165.447,1239.33,169.036,1239.34,173.454 C1239.34,173.454,1239.37,188.063,1239.37,188.063 z"/>
          </defs>
          <use xlink:href="#57" style="fill:#04bdda;fill-opacity:1;fill-rule:nonzero;opacity:1;stroke:none;"/>
        </g>
      </defs>
      <use xlink:href="#56"/>
      <defs>
        <title>Smart Rectangle</title>
        <g id="58">
          <defs>
            <path id="59" d="M1193.8,203.377 C1193.81,207.795,1197.39,211.369,1201.81,211.36 C1201.81,211.36,1211.4,211.341,1211.4,211.341 C1213.52,211.336,1215.55,210.489,1217.05,208.986 C1217.05,208.986,1217.05,208.986,1217.05,208.986 C1218.55,207.483,1219.38,205.446,1219.38,203.324 C1219.38,203.324,1219.35,188.716,1219.35,188.716 C1219.35,186.594,1218.5,184.561,1217,183.064 C1217,183.064,1217,183.064,1217,183.064 C1215.49,181.567,1213.46,180.728,1211.33,180.732 C1211.33,180.732,1201.75,180.752,1201.75,180.752 C1197.33,180.761,1193.76,184.35,1193.77,188.768 C1193.77,188.768,1193.8,203.377,1193.8,203.377 z"/>
          </defs>
          <use xlink:href="#59" style="fill:#04bdda;fill-opacity:1;fill-rule:nonzero;opacity:1;stroke:none;"/>
        </g>
      </defs>
      <use xlink:href="#58"/>
      <defs>
        <title>Smart Rectangle</title>
        <g id="60">
          <defs>
            <path id="61" d="M1154.9,189.39 C1154.91,193.809,1158.5,197.383,1162.92,197.374 C1162.92,197.374,1172.5,197.354,1172.5,197.354 C1174.63,197.35,1176.66,196.503,1178.16,195 C1178.16,195,1178.16,195,1178.16,195 C1179.65,193.496,1180.49,191.46,1180.49,189.338 C1180.49,189.338,1180.46,174.73,1180.46,174.73 C1180.45,172.608,1179.61,170.575,1178.1,169.078 C1178.1,169.078,1178.1,169.078,1178.1,169.078 C1176.6,167.581,1174.56,166.742,1172.44,166.746 C1172.44,166.746,1162.86,166.766,1162.86,166.766 C1158.44,166.775,1154.87,170.364,1154.87,174.782 C1154.87,174.782,1154.9,189.39,1154.9,189.39 z"/>
          </defs>
          <use xlink:href="#61" style="fill:#04bdda;fill-opacity:1;fill-rule:nonzero;opacity:1;stroke:none;"/>
        </g>
      </defs>
      <use xlink:href="#60"/>
      <defs>
        <title>Smart Rectangle</title>
        <g id="62">
          <defs>
            <path id="63" d="M1154.9,91.662 C1154.91,96.0803,1158.5,99.6547,1162.92,99.6456 C1162.92,99.6456,1172.5,99.6261,1172.5,99.6261 C1174.63,99.6217,1176.66,98.7747,1178.16,97.2714 C1178.16,97.2714,1178.16,97.2714,1178.16,97.2714 C1179.65,95.768,1180.49,93.7315,1180.49,91.6097 C1180.49,91.6097,1180.46,77.0015,1180.46,77.0015 C1180.45,74.8798,1179.61,72.8466,1178.1,71.3494 C1178.1,71.3494,1178.1,71.3494,1178.1,71.3494 C1176.6,69.8522,1174.56,69.0135,1172.44,69.0178 C1172.44,69.0178,1162.86,69.0374,1162.86,69.0374 C1158.44,69.0464,1154.87,72.6355,1154.87,77.0537 C1154.87,77.0537,1154.9,91.662,1154.9,91.662 z"/>
          </defs>
          <use xlink:href="#63" style="fill:#04bdda;fill-opacity:1;fill-rule:nonzero;opacity:1;stroke:none;"/>
        </g>
      </defs>
      <use xlink:href="#62"/>
    </g>
    <defs>
      <title>Path</title>
      <g id="64">
        <defs>
          <path id="65" d="M1029.27,135.192 C1029.27,135.192,1182.17,135.192,1182.17,135.192"/>
        </defs>
        <use xlink:href="#65" style="fill:none;opacity:1;stroke:#5e009b;stroke-linecap:butt;stroke-linejoin:miter;stroke-miterlimit:10;stroke-opacity:1;stroke-width:10;"/>
      </g>
    </defs>
    <use xlink:href="#64"/>
    <g id="66">
      <title>Group</title>
      <defs>
        <title>Path</title>
        <g id="67">
          <defs>
            <path id="68" d="M1106.78,103.109 C1124.13,103.109,1138.2,117.176,1138.2,134.528 C1138.2,151.88,1124.13,165.947,1106.78,165.947 C1089.42,165.947,1075.36,151.88,1075.36,134.528 C1075.36,117.176,1089.42,103.109,1106.78,103.109 z"/>
          </defs>
          <use xlink:href="#68" style="fill:#280a53;fill-opacity:1;fill-rule:evenodd;opacity:1;stroke:none;"/>
        </g>
      </defs>
      <use xlink:href="#67"/>
      <clipPath id="70">
        <use xlink:href="#69"/>
        <path id="69" d="M1089.78,117.528 C1089.78,117.528,1123.78,117.528,1123.78,117.528 C1123.78,117.528,1123.78,151.528,1123.78,151.528 C1123.78,151.528,1089.78,151.528,1089.78,151.528 C1089.78,151.528,1089.78,117.528,1089.78,117.528 z"/>
      </clipPath>
      <g id="71" style="clip-path:url(#70);">
        <title>ClipGroup</title>
        <defs>
          <title>Shape 26</title>
          <g id="72">
            <defs>
              <path id="73" d="M1116.67,132.383 C1116.19,132.383,1115.71,132.383,1115.23,132.383 C1115.23,132.383,1115.23,128.475,1115.23,128.475 C1115.23,123.117,1111.67,119.228,1106.78,119.228 C1101.88,119.228,1098.33,123.117,1098.33,128.475 C1098.33,128.475,1098.33,132.383,1098.33,132.383 C1097.85,132.383,1097.37,132.383,1096.89,132.383 C1096.55,132.383,1096.23,132.517,1095.99,132.755 C1095.75,132.994,1095.62,133.317,1095.62,133.654 C1095.62,138.411,1095.62,143.168,1095.62,147.925 C1095.62,150.462,1117.94,150.462,1117.94,147.925 C1117.94,147.925,1117.94,133.654,1117.94,133.654 C1117.94,133.317,1117.8,132.994,1117.57,132.755 C1117.33,132.517,1117,132.383,1116.67,132.383 z M1100.88,128.475 C1100.88,124.595,1103.36,121.779,1106.78,121.779 C1110.2,121.779,1112.68,124.595,1112.68,128.475 C1112.68,128.475,1112.68,132.383,1112.68,132.383 C1108.74,132.383,1104.81,132.383,1100.88,132.383 z M1108.06,141.529 C1107.96,141.582,1107.9,141.686,1107.9,141.799 C1107.9,141.799,1107.9,144.436,1107.9,144.436 C1107.91,145.046,1107.45,145.562,1106.84,145.616 C1106.53,145.632,1106.23,145.522,1106.01,145.311 C1105.79,145.1,1105.66,144.807,1105.66,144.5 C1105.66,143.599,1105.66,142.699,1105.66,141.798 C1105.66,141.685,1105.59,141.582,1105.5,141.529 C1104.45,140.945,1103.92,139.726,1104.23,138.565 C1104.53,137.403,1105.58,136.591,1106.78,136.591 C1107.98,136.591,1109.03,137.402,1109.33,138.564 C1109.63,139.725,1109.11,140.945,1108.06,141.529 z"/>
            </defs>
            <use xlink:href="#73" style="fill:#000000;fill-opacity:1;fill-rule:evenodd;opacity:1;stroke:none;"/>
          </g>
        </defs>
        <use xlink:href="#72"/>
      </g>
      <clipPath id="75">
        <use xlink:href="#74"/>
        <path id="74" d="M1089.78,117.528 C1089.78,117.528,1123.78,117.528,1123.78,117.528 C1123.78,117.528,1123.78,151.528,1123.78,151.528 C1123.78,151.528,1089.78,151.528,1089.78,151.528 C1089.78,151.528,1089.78,117.528,1089.78,117.528 z"/>
      </clipPath>
      <g id="76" style="clip-path:url(#75);">
        <defs>
          <g id="77">
            <defs>
              <path id="78" d="M1116.67,132.383 C1116.19,132.383,1115.71,132.383,1115.23,132.383 C1115.23,132.383,1115.23,128.475,1115.23,128.475 C1115.23,123.117,1111.67,119.228,1106.78,119.228 C1101.88,119.228,1098.33,123.117,1098.33,128.475 C1098.33,128.475,1098.33,132.383,1098.33,132.383 C1097.85,132.383,1097.37,132.383,1096.89,132.383 C1096.55,132.383,1096.23,132.517,1095.99,132.755 C1095.75,132.994,1095.62,133.317,1095.62,133.654 C1095.62,138.411,1095.62,143.168,1095.62,147.925 C1095.62,150.462,1117.94,150.462,1117.94,147.925 C1117.94,147.925,1117.94,133.654,1117.94,133.654 C1117.94,133.317,1117.8,132.994,1117.57,132.755 C1117.33,132.517,1117,132.383,1116.67,132.383 z M1100.88,128.475 C1100.88,124.595,1103.36,121.779,1106.78,121.779 C1110.2,121.779,1112.68,124.595,1112.68,128.475 C1112.68,128.475,1112.68,132.383,1112.68,132.383 C1108.74,132.383,1104.81,132.383,1100.88,132.383 z M1108.06,141.529 C1107.96,141.582,1107.9,141.686,1107.9,141.799 C1107.9,141.799,1107.9,144.436,1107.9,144.436 C1107.91,145.046,1107.45,145.562,1106.84,145.616 C1106.53,145.632,1106.23,145.522,1106.01,145.311 C1105.79,145.1,1105.66,144.807,1105.66,144.5 C1105.66,143.599,1105.66,142.699,1105.66,141.798 C1105.66,141.685,1105.59,141.582,1105.5,141.529 C1104.45,140.945,1103.92,139.726,1104.23,138.565 C1104.53,137.403,1105.58,136.591,1106.78,136.591 C1107.98,136.591,1109.03,137.402,1109.33,138.564 C1109.63,139.725,1109.11,140.945,1108.06,141.529 z"/>
            </defs>
            <use xlink:href="#78" style="fill:#ffffff;fill-opacity:1;fill-rule:nonzero;opacity:1;stroke:none;"/>
          </g>
        </defs>
        <use xlink:href="#77"/>
      </g>
    </g>
  </g>
</svg>
