<svg width="1024" height="658" xmlns="http://www.w3.org/2000/svg"><g fill-rule="nonzero" fill="none"><path d="M137.762 635.866c3.149-16.958 24.223-189.21 290.682-206.896 271.303-13.809 296.98 156.262 296.98 207.138h117.969c12.354-88.911-53.776-416.698-448.62-365.338-283.415 36.582-293.347 347.41-293.347 365.338l36.336-.242z" fill="#EE485D"/><path d="M452.183 635.866s-114.82-280.302 279.782-581.44c13.08-63.959 44.329-18.897 44.329-18.897l46.267 13.567s80.18 21.562 86.235 31.495c9.69 15.99 12.354 31.494 20.833 34.16 8.478 2.664 62.254 24.226 62.254 24.226l-16.23 42.639a634.865 634.865 0 00-205.657 100.54c-119.665 96.907-238.36 251.958-224.552 354.68l-93.261-.97z" fill="#3DB664" style="mix-blend-mode:multiply"/><path d="M929.629 115.235c-8.479-2.665-10.659-17.686-20.59-33.433-5.814-9.933-132.745-46.03-132.745-46.03s-31.249-44.578-44.33 19.138c0 0-75.334 7.51-155.03 16.717-106.826 12.355-246.353-5.815-368.682 84.066C8.408 302.507 38.687 601.95 38.687 636.108h31.491c0-12.597 3.391-320.034 260.403-405.07 299.645-102.479 439.415 50.15 439.415 50.15a669.502 669.502 0 01205.657-100.299l16.23-42.639s-54.018-21.077-62.254-23.015z" fill="#00CDDE" style="mix-blend-mode:multiply"/><path d="M261.786 635.866H366.19a740.907 740.907 0 0032.46-79.706c31.49-92.061 80.907-233.303-25.677-270.127-167.869-48.453-228.912 88.912-252.651 135.67a533.044 533.044 0 00-50.143 214.163h31.248a417.957 417.957 0 0126.646-121.133c45.298-101.995 119.18-112.897 157.695-101.025 59.832 18.412-16.956 206.653-23.98 222.158z" fill="#006ED9" opacity=".9" style="mix-blend-mode:multiply"/><path d="M346.326 280.46a359.92 359.92 0 0148.447-9.932 560.218 560.218 0 01129.354-2.907 720.977 720.977 0 0152.323-69.046 564.098 564.098 0 00-246.111 32.463 339.128 339.128 0 00-158.422 108.536c42.35-51.005 109.78-73.86 174.41-59.113z" fill="#00E8C2"/></g></svg>