<svg xmlns="http://www.w3.org/2000/svg" xmlns:xlink="http://www.w3.org/1999/xlink" height="800" width="1200" viewBox="-13.46715 -11.109375 116.7153 66.65625"><defs><linearGradient spreadMethod="pad" gradientTransform="rotate(-90 70.205 .3015) scale(37.1015)" gradientUnits="userSpaceOnUse" id="a" y2="0" x2=".9572" y1="0" x1="0"><stop offset="0" stop-color="#00b8f1"/><stop offset=".2199" stop-color="#06a5e5"/><stop offset=".2199" stop-color="#06a5e5"/><stop offset=".7943" stop-color="#1870c5"/><stop offset="1" stop-color="#1d61bc"/></linearGradient><linearGradient spreadMethod="pad" gradientTransform="matrix(0 46.3769 46.3769 0 44.859 .024)" gradientUnits="userSpaceOnUse" xlink:href="#a" id="b" y2="0" x2=".9572" y1="0" x1="0"/></defs><path d="M0 0v44.415h45.371L89.781.005H0z" fill="url(#b)"/><path d="M57.4688 39.875v3.3125h.5V41.75h.5624l.9063 1.4375H60l-.9688-1.4375c.4841-.06.875-.3415.875-.9375 0-.653-.3996-.9375-1.1874-.9375zm.5.4375h.6874c.3381 0 .7188.055.7188.4687 0 .5171-.3855.5626-.8125.5626h-.5937zm.625-1.6563c-1.586 0-2.9376 1.2221-2.9376 2.875 0 1.665 1.3515 2.9063 2.9376 2.9063 1.564 0 2.875-1.2411 2.875-2.9063 0-1.6529-1.311-2.875-2.875-2.875zm0 .4688c1.2939 0 2.3124 1.0453 2.3124 2.4062 0 1.3842-1.0185 2.4063-2.3124 2.4063-1.3161 0-2.375-1.0221-2.375-2.4063 0-1.3609 1.0589-2.4062 2.375-2.4062z" fill="#1870c5"/><path d="M53.797 21.252h-1.946v-7.117h1.946c2.598 0 4.666.856 4.666 3.513 0 2.744-2.068 3.604-4.666 3.604M32.852 26.34c-1.03 0-1.996-.188-2.831-.502l2.803-8.84h.06l2.745 8.864c-.827.296-1.768.478-2.774.478M53.281 8.353h-8.837v21.013l-7.72-21.013h-7.652l-6.596 17.568c-.697-4.428-5.284-5.961-8.89-7.104-2.377-.765-4.907-1.889-4.884-3.134.02-1.018 1.359-1.962 4-1.821 1.78.09 3.35.234 6.467 1.741l3.07-5.348C19.395 8.802 15.454 7.89 12.23 7.883h-.02c-3.761 0-6.895 1.226-8.839 3.233-1.351 1.404-2.082 3.18-2.115 5.157-.05 2.708.947 4.63 3.034 6.167 1.766 1.294 4.019 2.127 6.009 2.751 2.455.757 4.459 1.418 4.436 2.827-.02.513-.211.994-.582 1.374-.611.635-1.55.87-2.849.899-2.504.05-4.361-.34-7.319-2.088l-2.729 5.423c2.949 1.679 6.44 2.661 10.003 2.661h.461c3.1-.06 5.604-.945 7.605-2.553l.324-.283-.884 2.376h8.025l1.348-4.099c1.41.477 3.016.745 4.716.745 1.659 0 3.224-.25 4.609-.706l1.296 4.06h13.094v-8.49h2.857c6.9 0 10.986-3.512 10.986-9.406 0-6.56-3.968-9.569-12.416-9.569" fill="#fff" fill-rule="evenodd"/></svg>