<svg width="111" height="29" viewBox="0 0 111 29" fill="none" xmlns="http://www.w3.org/2000/svg">
<path d="M42.0987 24.3468C40.6244 24.3468 39.1929 24.1333 37.804 23.7051C36.4152 23.2769 35.2398 22.6543 34.2803 21.8359L36.2918 18.668C36.7295 19.1056 37.2691 19.4816 37.9108 19.7947C38.5524 20.109 39.2379 20.3486 39.965 20.5158C40.692 20.6819 41.4084 20.7661 42.1129 20.7661C43.1969 20.7661 44.077 20.5763 44.753 20.1956C45.4279 19.8149 45.7659 19.2586 45.7659 18.5257C45.7659 17.9362 45.5275 17.444 45.0531 17.049C44.5775 16.6541 43.6927 16.2757 42.3987 15.9152L40.5722 15.4016C38.5654 14.8406 37.1197 14.0792 36.2349 13.1185C35.3501 12.1578 34.9077 10.9931 34.9077 9.62322C34.9077 8.72894 35.0927 7.91057 35.4639 7.1693C35.8352 6.42684 36.3558 5.78519 37.026 5.24316C37.6961 4.70114 38.4907 4.2801 39.4087 3.98003C40.3267 3.67996 41.323 3.53052 42.3976 3.53052C43.8528 3.53052 45.2061 3.74282 46.4574 4.16505C47.7075 4.58847 48.7239 5.16607 49.5031 5.89905L47.4204 8.96615C47.0397 8.58543 46.5807 8.25809 46.0434 7.98174C45.5062 7.70539 44.9238 7.48953 44.2952 7.33297C43.6678 7.17641 43.0345 7.09814 42.3976 7.09814C41.7132 7.09814 41.1107 7.19065 40.5924 7.37686C40.0741 7.56188 39.672 7.82874 39.3862 8.17625C39.1004 8.52376 38.958 8.94006 38.958 9.42515C38.958 9.79638 39.06 10.1131 39.2652 10.374C39.4692 10.6361 39.8167 10.8804 40.3066 11.1093C40.7964 11.3371 41.4689 11.5754 42.3252 11.8233L44.2086 12.3796C46.187 12.9596 47.6233 13.6973 48.5175 14.5916C49.4118 15.4858 49.859 16.6458 49.859 18.0726C49.859 19.3096 49.547 20.4008 48.9243 21.3473C48.3017 22.2937 47.4074 23.0314 46.2415 23.5592C45.0756 24.087 43.6951 24.3515 42.0963 24.3515L42.0987 24.3468Z" fill="#282C49"/>
<path d="M52.8283 23.9196V3.94312H60.5756C62.0403 3.94312 63.339 4.19811 64.4705 4.70693C65.602 5.21574 66.4916 5.95346 67.1391 6.9189C67.7855 7.88434 68.1093 9.0431 68.1093 10.3928C68.1093 11.7425 67.8092 12.9393 67.2103 13.8952C66.6113 14.8512 65.7432 15.5794 64.6057 16.0787C63.4695 16.578 62.0925 16.8283 60.4748 16.8283H57.0506V23.9196H52.8271H52.8283ZM57.0518 13.2749H60.4048C61.4983 13.2749 62.3523 13.0519 62.9654 12.6048C63.5786 12.1577 63.8858 11.4496 63.8858 10.4794C63.8858 9.50922 63.5715 8.7715 62.9441 8.29589C62.3167 7.82029 61.4793 7.5819 60.4332 7.5819H57.0518V13.2749Z" fill="#282C49"/>
<path d="M71.3623 23.9196V3.94312H75.5858V23.9185H71.3623V23.9196Z" fill="#282C49"/>
<path d="M79.3105 23.9196V3.94312H87.2298C88.6755 3.94312 89.9387 4.18388 91.018 4.66423C92.0973 5.14458 92.9299 5.83723 93.5146 6.73981C94.0993 7.64357 94.3923 8.72287 94.3923 9.97889C94.3923 10.9681 94.1978 11.8362 93.8075 12.5834C93.4173 13.3306 92.8824 13.9509 92.2028 14.4455C91.5232 14.9401 90.7404 15.2971 89.8557 15.5153L95.449 23.9196H90.4119L85.6037 16.329H83.5352V23.9196H79.3117H79.3105ZM83.534 12.9179H86.6735C87.7575 12.9179 88.6068 12.6973 89.2199 12.2549C89.8331 11.8125 90.1403 11.14 90.1403 10.2363C90.1403 9.3325 89.8568 8.60545 89.2911 8.13934C88.7254 7.67322 87.8999 7.44076 86.8158 7.44076H83.534V12.9203V12.9179Z" fill="#282C49"/>
<path d="M98.1299 23.9196V3.94312H102.353V20.052H110.6V23.9185H98.1299V23.9196Z" fill="#282C49"/>
<path d="M20.5775 28.5C20.1304 28.5 19.6821 28.3292 19.3405 27.9876C18.6573 27.3045 18.6573 26.1967 19.3405 25.5135C22.1917 22.6623 22.7931 19.4896 22.7954 17.331C22.7954 16.3656 23.5794 15.584 24.5449 15.584H24.5472C25.5138 15.584 26.2955 16.3691 26.2943 17.3346C26.2907 21.3197 24.699 25.102 21.8146 27.9876C21.473 28.3292 21.0259 28.5 20.5775 28.5Z" fill="#FC6E35"/>
<path d="M11.2697 19.058C10.8225 19.058 10.3742 18.8872 10.0326 18.5456L9.10041 17.6134C7.51823 16.0312 6.64648 13.9283 6.64648 11.6903C6.64648 9.45219 7.51823 7.34934 9.10041 5.76716C12.3668 2.50079 17.6802 2.50079 20.9466 5.76716L22.2346 7.0718C23.2214 8.05859 24.0623 9.24226 24.7265 10.5825C25.1559 11.4483 24.8012 12.4979 23.9366 12.9261C23.0708 13.3555 22.0212 13.0008 21.5918 12.1362C21.096 11.1364 20.4781 10.2623 19.7523 9.53759L18.4642 8.23294C16.5701 6.33883 13.4757 6.33883 11.5733 8.24124C10.6518 9.1628 10.1441 10.388 10.1441 11.6903C10.1441 12.9925 10.6518 14.2177 11.5733 15.1393L12.5055 16.0715C13.1887 16.7547 13.1887 17.8624 12.5055 18.5456C12.164 18.8872 11.7168 19.058 11.2685 19.058H11.2697Z" fill="#FC6E35"/>
<path d="M3.72259 6.49782C3.4071 6.49782 3.08806 6.41243 2.79985 6.23333C1.97911 5.72333 1.72885 4.64403 2.23885 3.82329C2.86271 2.82109 3.61703 1.87462 4.47929 1.01237C5.16245 0.32921 6.27021 0.32921 6.95337 1.01237C7.63653 1.69553 7.63653 2.8033 6.95337 3.48646C6.2797 4.16132 5.69261 4.89666 5.2087 5.67233C4.8778 6.20487 4.30613 6.49782 3.72141 6.49782H3.72259Z" fill="#FC6E35"/>
<path d="M11.2694 25.6858C9.03136 25.6858 6.9285 24.8141 5.34632 23.2319L4.05828 21.9272C1.24024 19.108 -0.266034 14.8726 0.0387788 10.6053C0.107569 9.64101 0.944916 8.91516 1.90798 8.98513C2.87224 9.05392 3.59691 9.89127 3.52812 10.8543C3.29803 14.0756 4.45323 17.374 6.54067 19.4615L7.82871 20.7661C8.74196 21.6794 9.96714 22.187 11.2706 22.187C12.5741 22.187 13.7981 21.6794 14.7196 20.7578C16.622 18.8554 16.622 15.761 14.7196 13.8598L13.7874 12.9275C13.1042 12.2444 13.1042 11.1366 13.7874 10.4535C14.4706 9.77029 15.5783 9.77029 16.2615 10.4535L17.1937 11.3857C20.4601 14.652 20.4601 19.9655 17.1937 23.2319C15.6115 24.8141 13.5087 25.6858 11.2706 25.6858H11.2694Z" fill="#FC6E35"/>
</svg>
