<svg width="68" height="71" viewBox="0 0 68 71" fill="none" xmlns="http://www.w3.org/2000/svg">
<path d="M53.2165 70.1339C52.0602 70.1339 50.9008 69.7061 50.0174 68.8505C48.2507 67.1393 48.2507 64.3645 50.0174 62.6533C57.3909 55.5114 58.946 47.5643 58.9521 42.1573C58.9521 39.739 60.9795 37.7812 63.4762 37.7812H63.4824C65.9821 37.7812 68.0034 39.748 68.0003 42.1662C67.9911 52.1483 63.8749 61.6224 56.4156 68.8505C55.5322 69.7061 54.3759 70.1339 53.2165 70.1339Z" fill="#FC6E35"/>
<path d="M29.1405 46.4786C27.9841 46.4786 26.8247 46.0508 25.9414 45.1952L23.5306 42.8601C19.439 38.8969 17.1846 33.6296 17.1846 28.0236C17.1846 22.4176 19.439 17.1502 23.5306 13.1871C31.9776 5.00534 45.7186 5.00534 54.1656 13.1871L57.4966 16.455C60.0485 18.9268 62.2232 21.8917 63.9408 25.2488C65.0511 27.4175 64.134 30.0467 61.898 31.1192C59.659 32.1947 56.9445 31.3064 55.8342 29.1406C54.5521 26.6362 52.9541 24.4467 51.077 22.6315L47.746 19.3635C42.8477 14.6191 34.8454 14.6191 29.9257 19.3843C27.5425 21.6927 26.2297 24.7616 26.2297 28.0236C26.2297 31.2856 27.5425 34.3545 29.9257 36.6629L32.3365 38.998C34.1032 40.7092 34.1032 43.484 32.3365 45.1952C31.4531 46.0508 30.2968 46.4786 29.1374 46.4786H29.1405Z" fill="#FC6E35"/>
<path d="M9.62734 15.0236C8.81146 15.0236 7.98639 14.8097 7.24106 14.3611C5.11857 13.0837 4.47139 10.3802 5.79028 8.32436C7.40362 5.81398 9.35436 3.44323 11.5842 1.28341C13.3509 -0.427804 16.2157 -0.427804 17.9824 1.28341C19.7491 2.99463 19.7491 5.76941 17.9824 7.48063C16.2402 9.17105 14.7219 11.013 13.4705 12.9559C12.6148 14.2898 11.1364 15.0236 9.62427 15.0236H9.62734Z" fill="#FC6E35"/>
<path d="M29.1435 63.0863C23.3557 63.0863 17.9176 60.9028 13.8259 56.9396L10.495 53.6717C3.20735 46.6099 -0.687983 36.001 0.100285 25.3118C0.278181 22.8965 2.44362 21.0783 4.93417 21.2536C7.42779 21.4259 9.30185 23.5234 9.12395 25.9357C8.52891 34.0046 11.5164 42.2665 16.9146 47.4953L20.2456 50.7632C22.6073 53.0508 25.7757 54.3223 29.1465 54.3223C32.5174 54.3223 35.6827 53.0508 38.0659 50.7424C42.9857 45.9771 42.9857 38.2262 38.0659 33.4639L35.6551 31.1288C33.8884 29.4176 33.8884 26.6428 35.6551 24.9316C37.4218 23.2203 40.2866 23.2203 42.0533 24.9316L44.4641 27.2666C52.9111 35.4484 52.9111 48.7579 44.4641 56.9396C40.3725 60.9028 34.9343 63.0863 29.1465 63.0863H29.1435Z" fill="#FC6E35"/>
</svg>
