<?xml version="1.0" encoding="utf-8"?>
<!-- Generator: Adobe Illustrator 27.4.0, SVG Export Plug-In . SVG Version: 6.00 Build 0)  -->
<svg version="1.1" id="Layer_1" xmlns="http://www.w3.org/2000/svg" xmlns:xlink="http://www.w3.org/1999/xlink" x="0px" y="0px"
	 viewBox="0 0 1024 1024" style="enable-background:new 0 0 1024 1024;" xml:space="preserve">
<style type="text/css">
	.st0{fill:#544B9F;}
</style>
<g>
	<path class="st0" d="M511.95767,212.40445c0.00797,0,0.01431,0.00159,0.02225,0.00159s0.01428-0.00159,0.02222-0.00159H511.95767z"
		/>
	<g>
		<path class="st0" d="M998.32336,656.63342l-99.85138-85.02136l1.84839-11.53656
			c2.09137-15.59698,2.77417-31.87524,2.77417-47.95502c0-19.9798-1.04486-40.52014-4.62256-59.49316l99.85138-84.89749
			l2.21045-1.84998c2.65344-2.61221,4.46216-6.02792,5.14496-9.68658c0.72412-3.69998,0.24139-7.51743-1.28625-10.93475
			c-20.37994-61.50195-55.55341-120.02963-98.80487-168.54996c-6.11047-6.95213-14.75378-9.48653-22.87305-5.94853
			L756.90314,213.6907l-10.45197-8.07957c-28.64532-21.30415-60.06805-38.58759-93.39471-51.3739L628.13654,26.32968
			l-0.72253-2.65349c-1.24182-3.61739-3.44116-6.79332-6.36774-9.24514c-2.92664-2.45341-6.46466-4.06043-10.22968-4.62257
			l-0.04449-0.04129c-65.20508-13.02292-132.33957-13.02292-197.53989,0c-4.23352,0.64313-8.16058,2.57409-11.26028,5.50866
			c-3.0997,2.97267-5.21329,6.79332-6.06604,11.01255l-24.91519,127.91074l-11.3063,4.50188
			c-33.40448,13.66763-64.60327,32.15791-92.58484,54.95001l-125.77808-42.97197l-2.77419-0.88292
			c-3.67455-0.88449-7.52061-0.686-11.09512,0.52245c-3.57769,1.24655-6.72504,3.457-9.08475,6.38998
			C75.05879,225.2289,39.94568,283.75656,19.5943,345.25854c-1.74517,3.85876-2.09135,8.20184-0.9766,12.302
			c1.11316,4.10013,3.61262,7.71591,7.07757,10.16931l99.84024,84.93719l-1.87698,11.53656
			c-2.09135,15.59702-2.73448,31.95941-2.73448,47.91687c-0.27631,19.93854,1.26244,39.83734,4.61146,59.49158l-99.79578,85.02136
			l-2.21839,1.80707c-2.66937,2.65192-4.47013,6.03113-5.16566,9.72791c-0.69077,3.69836-0.24455,7.51746,1.28308,10.93317
			c20.35138,61.54321,55.4645,119.9931,98.76994,168.42926c6.14543,6.995,14.8046,9.52625,22.91277,6.03113l125.77808-43.01324
			l9.17371,7.39832c28.9137,21.78693,60.81595,39.35297,94.71744,52.09485l24.91519,127.99011l0.68442,2.65192
			c1.24973,3.5777,3.46017,6.79492,6.39474,9.24829c2.92981,2.45026,6.47256,4.01758,10.24716,4.62256
			C445.8284,1020.5033,478.42459,1024,512.04187,1024c33.58069,0,66.17847-3.4967,98.77472-9.44525
			c4.22394-0.68597,8.14783-2.61377,11.2428-5.54834c3.09491-2.97583,5.21802-6.79333,6.07715-10.97443l24.95966-127.99011
			l12.45758-5.02594c32.93762-13.90741,63.78546-32.2373,91.39386-54.46722l125.76697,43.01324l2.73285,0.92419
			c7.3158,1.97064,14.71252-0.72412,20.17993-6.95532c43.3324-48.43616,78.42493-106.88605,98.76514-168.42926
			c1.76904-3.85876,2.09137-8.2384,1.00519-12.34167C1004.27344,662.66132,1001.78033,659.08362,998.32336,656.63342z
			 M512.00214,811.63324c-165.80118,0-300.19876-134.13873-300.19876-299.59375c0-165.4455,134.30231-299.62073,300.17654-299.63345
			c-0.00793,0-0.01428-0.00159-0.02225-0.00159h0.04446c-0.00793,0-0.01428,0.00159-0.02222,0.00159
			c165.83295,0.01271,300.22736,134.18796,300.22736,299.63345C812.20728,677.49451,677.80176,811.63324,512.00214,811.63324z"/>
		<path class="st0" d="M511.99738,307.2283c-113.0918,0.00793-205.10654,91.88135-205.10654,204.80008
			s92.01474,204.78418,205.11447,204.78418s205.11292-91.86542,205.11292-204.78418S625.09717,307.23624,511.99738,307.2283z
			 M512.00531,632.36926c-66.54056,0-120.67117-53.98132-120.67117-120.34088c0-66.36749,54.12268-120.35675,120.64578-120.35675
			c66.54852,0,120.69501,53.98926,120.69501,120.35675C632.67493,578.38794,578.5459,632.36926,512.00531,632.36926z"/>
	</g>
</g>
</svg>
