<svg xmlns="http://www.w3.org/2000/svg" height="800" width="1200" viewBox="-22.39065 -6.274875 194.0523 37.64925"><g fill-rule="evenodd" fill="none"><path fill="#00C6FF" d="M2.4712 0l3.2822 5.4961L0 10.9834h9.947l.935-2.1992H5.3936l3.321-3.3026-1.9398-3.283h9.0502L7.88 20.966h2.7223L19.486 0H2.4712"/><path fill="#232F49" d="M123.1869 12.8567h2.2684v12.0056h-2.2684zm-.103-4.0586h2.475v2.4352h-2.475zm-3.7824.0007l-2.8201 12.4787h-.1024l-2.9224-8.4195h-2.0288l-3.3356 8.4195h-.103l-2.2347-12.4787h-2.4414l3.0591 16.0635h2.2698l3.6108-8.8939h.1023l3.1303 8.894h2.2684l3.8854-16.0636h-2.3377M87.7373 23.1045c-2.2004 0-3.7131-1.7255-3.7131-4.2279 0-2.333 1.3061-4.3293 3.4385-4.3293 2.4413 0 3.0947 2.03 3.1634 3.2817h-4.2204l-.79 1.8264h7.3137c.0337-.4744.0337-.6088.0337-.846 0-3.4497-1.753-6.1886-5.5353-6.1886-3.2664 0-5.7757 2.6368-5.7757 6.2558 0 3.7206 2.4057 6.1887 5.8443 6.1887 2.0638 0 3.8854-.7433 4.9862-2.0623l-1.3754-1.3196c-.8936.9138-2.0631 1.421-3.37 1.421m-8.9739-10.4843c0-1.4877.722-2.3336 2.0975-2.3336.5161 0 1.3411.1357 1.9945.3729l.7214-1.6577c-.8936-.4395-1.9595-.6088-2.7845-.6088-2.304 0-4.298 1.1497-4.298 4.2272v.3723h-1.5126v1.8942h1.5127v9.9757h2.269v-9.9757h2.3034l.7914-1.8942h-3.0948V12.62m-20.4584.0001c-1.5127 0-2.8882.5759-3.5759 1.7592h-.1023v-1.522h-2.201v12.005h2.269v-6.4917c0-2.368 1.2038-3.789 3.0953-3.789 1.7867 0 2.8532.9467 2.8532 3.1447v7.136h2.269v-7.5412c0-3.0433-1.7872-4.701-4.6073-4.701M47.543 20.2299c0 1.7915-1.4784 2.9418-3.5415 2.9418-1.2375 0-2.3034-.5745-2.3034-1.9957 0-1.3177 1.1002-2.1973 2.7852-2.1973 1.5127 0 2.51.2702 3.0597.676zm-3.1977-7.6098c-1.3404 0-2.6129.2023-3.5752.5746l.3782 1.8276c1.1002-.3386 1.9939-.4743 2.8881-.4743 1.9253 0 3.5066.8795 3.5066 2.841v.338c-.6184-.236-1.5813-.541-2.991-.541-3.0948 0-5.123 1.5556-5.123 4.0921 0 2.6381 1.9939 3.8214 4.2286 3.8214 1.8572 0 3.129-.7432 3.783-1.6234h.1024v1.3875h2.201v-7.5083c0-3.2798-2.1317-4.7352-5.3987-4.7352zM19.486 8.7988v2.165h5.0886v13.8985h2.4076V10.9638h5.0886v-2.165H19.486m20.046 4.2951c-.722-.3044-1.5127-.338-1.9602-.338-1.2724 0-2.5093.5073-3.1633 1.4192h-.103v-1.3178h-2.2004V24.863h2.2697v-6.561c0-2.5366 1.2375-3.5512 3.0597-3.5512.6191 0 1.0316.0678 1.582.2029l.5155-1.86m63.162.0338c-.722-.3038-1.5126-.3723-1.9601-.3723-1.2718 0-2.6472.5073-3.2994 1.4211h-.1048v-1.3196h-2.1998v12.0056h2.2697v-6.5602c0-2.5366 1.3748-3.5506 3.197-3.5506.619 0 1.0316.0666 1.582.2023l.5155-1.8263m41.351 9.977c-2.201 0-3.7131-1.7255-3.7131-4.2279 0-2.333 1.3068-4.3293 3.438-4.3293 2.4419 0 3.0946 2.03 3.1639 3.2817h-4.221l-.7907 1.8264h7.315c.0338-.4744.0338-.6088.0338-.846 0-3.4497-1.753-6.1886-5.5354-6.1886-3.2663 0-5.7763 2.6368-5.7763 6.2558 0 3.7206 2.4064 6.1887 5.845 6.1887 2.0637 0 3.886-.7433 4.9862-2.0623l-1.376-1.3196c-.8937.9138-2.0626 1.421-3.3694 1.421m-74.1858-5.1733c-1.7536-.2371-2.7851-.5758-2.7851-1.7255 0-1.0482 1.0315-1.6906 2.304-1.6906 1.031 0 2.3377.4065 3.162 1.0152l1.1009-1.624c-1.031-.846-2.6816-1.2848-4.2292-1.2848-2.6473 0-4.6075 1.5898-4.6075 3.6857 0 2.4021 1.5477 3.1796 4.1613 3.5854 1.4784.2366 2.7502.4059 2.7502 1.657 0 1.0483-1.0322 1.6235-2.4064 1.6235-1.341 0-2.5449-.3723-3.7144-1.2854l-.9966 1.792c.8593.7782 2.6479 1.387 4.6418 1.387 2.7508 0 4.7447-1.5892 4.7447-3.72 0-2.5702-2.0625-3.1447-4.1257-3.4155m62.789.0039c-1.7536-.2372-2.7852-.5759-2.7852-1.7256 0-1.0482 1.0316-1.6906 2.3047-1.6906 1.0303 0 2.3377.4065 3.162 1.0152l1.101-1.6246c-1.0316-.8454-2.6816-1.2842-4.2293-1.2842-2.6473 0-4.6068 1.5892-4.6068 3.6857 0 2.4015 1.547 3.179 4.1593 3.5848 1.479.2372 2.7515.4059 2.7515 1.657 0 1.0483-1.0316 1.624-2.407 1.624-1.341 0-2.5443-.3722-3.7138-1.286l-.996 1.7934c.8588.7775 2.646 1.3862 4.6412 1.3862 2.7502 0 4.744-1.5898 4.744-3.7199 0-2.5702-2.0625-3.1453-4.1256-3.4155"/></g></svg>