<svg xmlns="http://www.w3.org/2000/svg" height="800" width="1200" viewBox="-41.25 -24.9105 357.5 149.463"><path d="M82.775 79.842L64.9 49.775l17.875-30.067 8.617 30.067zm-39.783-2.934L20.533 54.633h35.75L74.158 84.7zm0-54.358l31.075-7.792-17.875 30.067h-35.75zM88.642 0L48.033 10.542 41.983 20.9l-12.191-.092L0 49.775l29.792 28.967 12.191-.092 6.05 10.358 40.609 10.634L99.55 60.133l-6.142-10.266L99.55 39.6zm92.216 29.242c-5.408 0-9.075 2.291-11.825 6.508h-.183v-5.408h-9.533v39.783h9.716v-22.55c0-5.408 3.392-9.167 8.067-9.167 4.4 0 7.7 2.659 7.7 7.334v24.475h9.717V44.183c.091-8.708-5.409-14.941-13.659-14.941zm-36.3 24.108c0 5.317-3.025 8.983-7.975 8.983-4.491 0-7.333-2.566-7.333-7.241v-24.75h-9.717v26.583c0 8.708 4.95 14.392 13.842 14.392 5.592 0 8.708-2.109 11.367-5.775h.275v4.675h9.35V30.342h-9.717V53.35zm55.184-23.008h9.716v39.783h-9.716zm0-12.375h9.716v7.975h-9.716zm64.808 12.375l-5.775 17.966c-1.283 3.667-2.292 8.709-2.292 8.709h-.275s-1.283-5.042-2.566-8.709l-6.509-17.966h-10.45l10.725 28.325c2.292 6.05 3.025 8.616 3.025 10.816 0 3.3-1.741 5.409-5.866 5.409h-3.759v8.341h6.234c8.066 0 10.908-3.208 13.933-12.008L275 30.433h-10.45zm-36.942 28.141V37.4h6.234v-6.967h-6.234V17.967h-9.716v12.375h-5.5v6.966h5.5v23.375c0 7.517 5.683 9.534 10.816 9.534 4.217 0 5.317-.184 5.317-.184v-7.7h-2.475c-2.292.092-3.942-.916-3.942-3.85z" fill="#110b09"/></svg>