<?xml version="1.0" encoding="UTF-8"?>
<!-- Generated by Pixelmator Pro 3.4.3 -->
<svg width="312" height="258" viewBox="0 0 312 258" xmlns="http://www.w3.org/2000/svg">
    <g id="Group">
        <path id="Path" fill="#ff6333" stroke="none" d="M 213.399994 -0.519989 C 212.690002 1.359985 205.529999 22.509995 201.649994 31.209991 L 262.759979 31.209991 C 241.020004 90.080002 210 143.899994 170.160004 191.139999 L 156.529999 207.240005 L 142.899994 191.139999 C 103.059998 143.899994 72.040001 90.080002 50.300003 31.209991 L 108.350006 31.209991 C 104.470001 22.509995 97.300003 1.359985 96.600006 -0.519989 L -1e-06 -0.519989 C 31.959999 85.970001 77.559998 165.050003 136.080002 234.37999 L 156.059998 258 L 176.039993 234.37999 C 234.560013 165.050003 280.149994 85.960007 312.119995 -0.519989 L 213.410004 -0.519989 Z"/>
        <path id="path1" fill="#ff6333" stroke="none" d="M 197.419998 51.889999 C 186.839996 78.089996 173.100006 102.649994 156.059998 124.75 C 139.020004 102.660004 125.270004 78.099991 114.699997 51.889999 L 82.620003 51.889999 C 97.660004 92.550003 119.169998 129.800003 146.660004 162.350006 L 156.059998 173.509995 L 165.460007 162.350006 C 192.960007 129.680008 214.460007 92.550003 229.500015 51.889999 L 197.419998 51.889999 Z"/>
    </g>
</svg>
