<svg width="512" height="214" viewBox="0 0 512 214" fill="none" xmlns="http://www.w3.org/2000/svg">
<path d="M280.616 58.4942H307.679L294.064 155.62H267.002L280.616 58.4942ZM246.498 58.4942L228.235 114.445L220.265 58.4942H201.338L177.43 114.279L174.442 58.4942H148.209L157.341 155.62H179.091L205.987 94.1901L215.451 155.62H236.868L272.232 58.4942H246.498ZM473.706 114.943H409.453C409.785 127.562 417.34 135.863 428.463 135.863C436.848 135.863 443.489 131.38 448.636 122.83L470.327 132.692C462.873 147.377 447.166 156.948 427.799 156.948C401.401 156.948 383.885 139.183 383.885 110.627C383.885 79.2476 404.472 57 433.527 57C459.095 57 475.2 74.2668 475.2 101.163C475.2 105.646 474.702 110.129 473.706 114.943ZM449.632 96.3484C449.632 85.0586 443.323 77.9194 433.195 77.9194C423.068 77.9194 414.102 85.3906 411.778 96.3484H449.632ZM63.6269 87.7648L36 120.049H85.3267L90.872 104.824H69.7367L82.6536 89.89L82.6952 89.4915L74.2942 75.0389H112.074L82.7865 155.62H102.826L138.19 58.4942H46.825L63.6186 87.7648H63.6269ZM351.676 77.9194C361.222 77.9194 369.59 83.0497 376.895 91.8491L380.731 64.4712C373.923 59.864 364.709 57 352.506 57C328.266 57 314.652 71.1953 314.652 89.2093C314.652 101.703 321.625 109.34 333.081 114.279L338.56 116.77C348.77 121.128 351.51 123.286 351.51 127.894C351.51 132.501 346.903 135.697 339.888 135.697C328.307 135.738 318.927 129.803 311.871 119.675L307.961 147.576C315.997 153.703 326.299 156.948 339.888 156.948C362.924 156.948 377.078 143.666 377.078 125.237C377.078 112.702 371.516 104.65 357.487 98.3408L351.51 95.5183C343.208 91.8242 340.386 89.7904 340.386 85.7227C340.386 81.323 344.246 77.9194 351.676 77.9194Z" fill="#163300"/>
</svg>